<mxfile host="app.diagrams.net" modified="2024-06-06T16:01:27.822Z" agent="Mozilla/5.0 (Windows NT 10.0; Win64; x64) AppleWebKit/537.36 (KHTML, like Gecko) Chrome/125.0.0.0 Safari/537.36" etag="qWkKXEo6YjyQVxBBbXlX" version="24.4.14" type="google">
  <diagram id="-Kuf49RFvsH5lZUc2MUe" name="Fixed Flowchart">
    <mxGraphModel dx="4369" dy="1217" grid="1" gridSize="10" guides="1" tooltips="1" connect="1" arrows="1" fold="1" page="1" pageScale="1" pageWidth="1169" pageHeight="827" math="0" shadow="0">
      <root>
        <mxCell id="0" />
        <mxCell id="1" parent="0" />
        <mxCell id="0zhq0VFXp20kZqqoGH3C-1" style="edgeStyle=orthogonalEdgeStyle;rounded=0;orthogonalLoop=1;jettySize=auto;html=1;exitX=0.5;exitY=1;exitDx=0;exitDy=0;entryX=0.5;entryY=0;entryDx=0;entryDy=0;" edge="1" parent="1" source="0zhq0VFXp20kZqqoGH3C-2" target="0zhq0VFXp20kZqqoGH3C-4">
          <mxGeometry relative="1" as="geometry" />
        </mxCell>
        <mxCell id="0zhq0VFXp20kZqqoGH3C-2" value="Start" style="ellipse;whiteSpace=wrap;html=1;" vertex="1" parent="1">
          <mxGeometry y="310" width="110" height="70" as="geometry" />
        </mxCell>
        <mxCell id="0zhq0VFXp20kZqqoGH3C-3" style="edgeStyle=orthogonalEdgeStyle;rounded=0;orthogonalLoop=1;jettySize=auto;html=1;exitX=0.5;exitY=1;exitDx=0;exitDy=0;entryX=0.5;entryY=0;entryDx=0;entryDy=0;" edge="1" parent="1" source="0zhq0VFXp20kZqqoGH3C-4" target="0zhq0VFXp20kZqqoGH3C-9">
          <mxGeometry relative="1" as="geometry" />
        </mxCell>
        <mxCell id="0zhq0VFXp20kZqqoGH3C-4" value="Memilih Menu" style="shape=parallelogram;perimeter=parallelogramPerimeter;whiteSpace=wrap;html=1;fixedSize=1;" vertex="1" parent="1">
          <mxGeometry x="-5" y="410" width="120" height="60" as="geometry" />
        </mxCell>
        <mxCell id="0zhq0VFXp20kZqqoGH3C-5" style="edgeStyle=orthogonalEdgeStyle;rounded=0;orthogonalLoop=1;jettySize=auto;html=1;exitX=1;exitY=0.5;exitDx=0;exitDy=0;entryX=0;entryY=0.5;entryDx=0;entryDy=0;" edge="1" parent="1" source="0zhq0VFXp20kZqqoGH3C-9" target="0zhq0VFXp20kZqqoGH3C-14">
          <mxGeometry relative="1" as="geometry" />
        </mxCell>
        <mxCell id="0zhq0VFXp20kZqqoGH3C-6" value="No" style="edgeLabel;html=1;align=center;verticalAlign=middle;resizable=0;points=[];" vertex="1" connectable="0" parent="0zhq0VFXp20kZqqoGH3C-5">
          <mxGeometry x="-0.0919" y="3" relative="1" as="geometry">
            <mxPoint as="offset" />
          </mxGeometry>
        </mxCell>
        <mxCell id="0zhq0VFXp20kZqqoGH3C-7" style="edgeStyle=orthogonalEdgeStyle;rounded=0;orthogonalLoop=1;jettySize=auto;html=1;exitX=0.5;exitY=1;exitDx=0;exitDy=0;entryX=0.5;entryY=0;entryDx=0;entryDy=0;" edge="1" parent="1" source="0zhq0VFXp20kZqqoGH3C-9" target="0zhq0VFXp20kZqqoGH3C-42">
          <mxGeometry relative="1" as="geometry" />
        </mxCell>
        <mxCell id="0zhq0VFXp20kZqqoGH3C-8" value="Yes" style="edgeLabel;html=1;align=center;verticalAlign=middle;resizable=0;points=[];" vertex="1" connectable="0" parent="0zhq0VFXp20kZqqoGH3C-7">
          <mxGeometry x="-0.3333" y="2" relative="1" as="geometry">
            <mxPoint as="offset" />
          </mxGeometry>
        </mxCell>
        <mxCell id="0zhq0VFXp20kZqqoGH3C-9" value="1&lt;div&gt;inputData&lt;/div&gt;" style="rhombus;whiteSpace=wrap;html=1;" vertex="1" parent="1">
          <mxGeometry x="-410" y="530" width="107.5" height="100" as="geometry" />
        </mxCell>
        <mxCell id="0zhq0VFXp20kZqqoGH3C-10" style="edgeStyle=orthogonalEdgeStyle;rounded=0;orthogonalLoop=1;jettySize=auto;html=1;exitX=1;exitY=0.5;exitDx=0;exitDy=0;entryX=0;entryY=0.5;entryDx=0;entryDy=0;" edge="1" parent="1" source="0zhq0VFXp20kZqqoGH3C-14" target="0zhq0VFXp20kZqqoGH3C-19">
          <mxGeometry relative="1" as="geometry" />
        </mxCell>
        <mxCell id="0zhq0VFXp20kZqqoGH3C-11" value="No" style="edgeLabel;html=1;align=center;verticalAlign=middle;resizable=0;points=[];" vertex="1" connectable="0" parent="0zhq0VFXp20kZqqoGH3C-10">
          <mxGeometry x="-0.9032" y="-2" relative="1" as="geometry">
            <mxPoint as="offset" />
          </mxGeometry>
        </mxCell>
        <mxCell id="0zhq0VFXp20kZqqoGH3C-12" style="edgeStyle=orthogonalEdgeStyle;rounded=0;orthogonalLoop=1;jettySize=auto;html=1;exitX=0.5;exitY=1;exitDx=0;exitDy=0;entryX=0.5;entryY=0;entryDx=0;entryDy=0;" edge="1" parent="1" source="0zhq0VFXp20kZqqoGH3C-14" target="0zhq0VFXp20kZqqoGH3C-84">
          <mxGeometry relative="1" as="geometry" />
        </mxCell>
        <mxCell id="0zhq0VFXp20kZqqoGH3C-13" value="Yes" style="edgeLabel;html=1;align=center;verticalAlign=middle;resizable=0;points=[];" vertex="1" connectable="0" parent="0zhq0VFXp20kZqqoGH3C-12">
          <mxGeometry x="-0.2317" y="-1" relative="1" as="geometry">
            <mxPoint y="-1" as="offset" />
          </mxGeometry>
        </mxCell>
        <mxCell id="0zhq0VFXp20kZqqoGH3C-14" value="2&lt;div&gt;tampilkanData&lt;/div&gt;" style="rhombus;whiteSpace=wrap;html=1;" vertex="1" parent="1">
          <mxGeometry x="-18.999999999999943" y="530" width="107.5" height="100" as="geometry" />
        </mxCell>
        <mxCell id="0zhq0VFXp20kZqqoGH3C-15" style="edgeStyle=orthogonalEdgeStyle;rounded=0;orthogonalLoop=1;jettySize=auto;html=1;exitX=1;exitY=0.5;exitDx=0;exitDy=0;entryX=0;entryY=0.5;entryDx=0;entryDy=0;" edge="1" parent="1" source="0zhq0VFXp20kZqqoGH3C-19" target="0zhq0VFXp20kZqqoGH3C-24">
          <mxGeometry relative="1" as="geometry" />
        </mxCell>
        <mxCell id="0zhq0VFXp20kZqqoGH3C-16" value="No" style="edgeLabel;html=1;align=center;verticalAlign=middle;resizable=0;points=[];" vertex="1" connectable="0" parent="0zhq0VFXp20kZqqoGH3C-15">
          <mxGeometry x="-0.9179" y="-1" relative="1" as="geometry">
            <mxPoint as="offset" />
          </mxGeometry>
        </mxCell>
        <mxCell id="0zhq0VFXp20kZqqoGH3C-17" style="edgeStyle=orthogonalEdgeStyle;rounded=0;orthogonalLoop=1;jettySize=auto;html=1;exitX=0.5;exitY=1;exitDx=0;exitDy=0;entryX=0.5;entryY=0;entryDx=0;entryDy=0;" edge="1" parent="1" source="0zhq0VFXp20kZqqoGH3C-19" target="0zhq0VFXp20kZqqoGH3C-155">
          <mxGeometry relative="1" as="geometry" />
        </mxCell>
        <mxCell id="0zhq0VFXp20kZqqoGH3C-18" value="Yes" style="edgeLabel;html=1;align=center;verticalAlign=middle;resizable=0;points=[];" vertex="1" connectable="0" parent="0zhq0VFXp20kZqqoGH3C-17">
          <mxGeometry x="-0.163" relative="1" as="geometry">
            <mxPoint as="offset" />
          </mxGeometry>
        </mxCell>
        <mxCell id="0zhq0VFXp20kZqqoGH3C-19" value="3&lt;div&gt;hapusData&lt;/div&gt;" style="rhombus;whiteSpace=wrap;html=1;" vertex="1" parent="1">
          <mxGeometry x="656.81" y="530" width="107.5" height="100" as="geometry" />
        </mxCell>
        <mxCell id="0zhq0VFXp20kZqqoGH3C-20" style="edgeStyle=orthogonalEdgeStyle;rounded=0;orthogonalLoop=1;jettySize=auto;html=1;exitX=1;exitY=0.5;exitDx=0;exitDy=0;entryX=0;entryY=0.5;entryDx=0;entryDy=0;" edge="1" parent="1" source="0zhq0VFXp20kZqqoGH3C-24" target="0zhq0VFXp20kZqqoGH3C-29">
          <mxGeometry relative="1" as="geometry">
            <mxPoint x="1360" y="580" as="targetPoint" />
          </mxGeometry>
        </mxCell>
        <mxCell id="0zhq0VFXp20kZqqoGH3C-21" value="No" style="edgeLabel;html=1;align=center;verticalAlign=middle;resizable=0;points=[];" vertex="1" connectable="0" parent="0zhq0VFXp20kZqqoGH3C-20">
          <mxGeometry x="-0.8591" y="1" relative="1" as="geometry">
            <mxPoint as="offset" />
          </mxGeometry>
        </mxCell>
        <mxCell id="0zhq0VFXp20kZqqoGH3C-22" style="edgeStyle=orthogonalEdgeStyle;rounded=0;orthogonalLoop=1;jettySize=auto;html=1;exitX=0.5;exitY=1;exitDx=0;exitDy=0;entryX=0.5;entryY=0;entryDx=0;entryDy=0;" edge="1" parent="1" source="0zhq0VFXp20kZqqoGH3C-24" target="0zhq0VFXp20kZqqoGH3C-195">
          <mxGeometry relative="1" as="geometry" />
        </mxCell>
        <mxCell id="0zhq0VFXp20kZqqoGH3C-23" value="Yes" style="edgeLabel;html=1;align=center;verticalAlign=middle;resizable=0;points=[];" vertex="1" connectable="0" parent="0zhq0VFXp20kZqqoGH3C-22">
          <mxGeometry x="-0.1783" relative="1" as="geometry">
            <mxPoint y="-1" as="offset" />
          </mxGeometry>
        </mxCell>
        <mxCell id="0zhq0VFXp20kZqqoGH3C-24" value="4&lt;div&gt;updateData&lt;/div&gt;" style="rhombus;whiteSpace=wrap;html=1;" vertex="1" parent="1">
          <mxGeometry x="1262" y="530" width="107.5" height="100" as="geometry" />
        </mxCell>
        <mxCell id="0zhq0VFXp20kZqqoGH3C-25" style="edgeStyle=orthogonalEdgeStyle;rounded=0;orthogonalLoop=1;jettySize=auto;html=1;exitX=1;exitY=0.5;exitDx=0;exitDy=0;entryX=0;entryY=0.5;entryDx=0;entryDy=0;" edge="1" parent="1" source="0zhq0VFXp20kZqqoGH3C-29" target="0zhq0VFXp20kZqqoGH3C-34">
          <mxGeometry relative="1" as="geometry" />
        </mxCell>
        <mxCell id="0zhq0VFXp20kZqqoGH3C-26" value="No" style="edgeLabel;html=1;align=center;verticalAlign=middle;resizable=0;points=[];" vertex="1" connectable="0" parent="0zhq0VFXp20kZqqoGH3C-25">
          <mxGeometry x="0.0619" y="-2" relative="1" as="geometry">
            <mxPoint x="-1" as="offset" />
          </mxGeometry>
        </mxCell>
        <mxCell id="0zhq0VFXp20kZqqoGH3C-27" style="edgeStyle=orthogonalEdgeStyle;rounded=0;orthogonalLoop=1;jettySize=auto;html=1;exitX=0.5;exitY=1;exitDx=0;exitDy=0;entryX=0.5;entryY=0;entryDx=0;entryDy=0;" edge="1" parent="1" source="0zhq0VFXp20kZqqoGH3C-29" target="0zhq0VFXp20kZqqoGH3C-136">
          <mxGeometry relative="1" as="geometry" />
        </mxCell>
        <mxCell id="0zhq0VFXp20kZqqoGH3C-28" value="Yes" style="edgeLabel;html=1;align=center;verticalAlign=middle;resizable=0;points=[];" vertex="1" connectable="0" parent="0zhq0VFXp20kZqqoGH3C-27">
          <mxGeometry x="-0.0632" y="1" relative="1" as="geometry">
            <mxPoint as="offset" />
          </mxGeometry>
        </mxCell>
        <mxCell id="0zhq0VFXp20kZqqoGH3C-29" value="5&lt;div&gt;transkripNilai&lt;/div&gt;" style="rhombus;whiteSpace=wrap;html=1;" vertex="1" parent="1">
          <mxGeometry x="2349" y="530" width="107.5" height="100" as="geometry" />
        </mxCell>
        <mxCell id="0zhq0VFXp20kZqqoGH3C-30" style="edgeStyle=orthogonalEdgeStyle;rounded=0;orthogonalLoop=1;jettySize=auto;html=1;exitX=1;exitY=0.5;exitDx=0;exitDy=0;entryX=0;entryY=0.5;entryDx=0;entryDy=0;" edge="1" parent="1" source="0zhq0VFXp20kZqqoGH3C-34" target="0zhq0VFXp20kZqqoGH3C-39">
          <mxGeometry relative="1" as="geometry">
            <mxPoint x="2798.000000000001" y="580" as="targetPoint" />
          </mxGeometry>
        </mxCell>
        <mxCell id="0zhq0VFXp20kZqqoGH3C-31" value="No" style="edgeLabel;html=1;align=center;verticalAlign=middle;resizable=0;points=[];" vertex="1" connectable="0" parent="0zhq0VFXp20kZqqoGH3C-30">
          <mxGeometry x="0.1189" y="-2" relative="1" as="geometry">
            <mxPoint as="offset" />
          </mxGeometry>
        </mxCell>
        <mxCell id="0zhq0VFXp20kZqqoGH3C-32" style="edgeStyle=orthogonalEdgeStyle;rounded=0;orthogonalLoop=1;jettySize=auto;html=1;exitX=0.5;exitY=1;exitDx=0;exitDy=0;entryX=0.5;entryY=0;entryDx=0;entryDy=0;" edge="1" parent="1" source="0zhq0VFXp20kZqqoGH3C-34" target="0zhq0VFXp20kZqqoGH3C-128">
          <mxGeometry relative="1" as="geometry" />
        </mxCell>
        <mxCell id="0zhq0VFXp20kZqqoGH3C-33" value="Yes" style="edgeLabel;html=1;align=center;verticalAlign=middle;resizable=0;points=[];" vertex="1" connectable="0" parent="0zhq0VFXp20kZqqoGH3C-32">
          <mxGeometry x="-0.15" y="-1" relative="1" as="geometry">
            <mxPoint y="-1" as="offset" />
          </mxGeometry>
        </mxCell>
        <mxCell id="0zhq0VFXp20kZqqoGH3C-34" value="6&lt;div&gt;urutkanNilai&lt;/div&gt;" style="rhombus;whiteSpace=wrap;html=1;" vertex="1" parent="1">
          <mxGeometry x="2618" y="530" width="107.5" height="100" as="geometry" />
        </mxCell>
        <mxCell id="0zhq0VFXp20kZqqoGH3C-35" style="edgeStyle=orthogonalEdgeStyle;rounded=0;orthogonalLoop=1;jettySize=auto;html=1;exitX=1;exitY=0.5;exitDx=0;exitDy=0;entryX=0;entryY=0.5;entryDx=0;entryDy=0;" edge="1" parent="1" source="0zhq0VFXp20kZqqoGH3C-39" target="0zhq0VFXp20kZqqoGH3C-40">
          <mxGeometry relative="1" as="geometry" />
        </mxCell>
        <mxCell id="0zhq0VFXp20kZqqoGH3C-36" value="Yes" style="edgeLabel;html=1;align=center;verticalAlign=middle;resizable=0;points=[];" vertex="1" connectable="0" parent="0zhq0VFXp20kZqqoGH3C-35">
          <mxGeometry x="-0.1241" y="-2" relative="1" as="geometry">
            <mxPoint as="offset" />
          </mxGeometry>
        </mxCell>
        <mxCell id="0zhq0VFXp20kZqqoGH3C-37" style="edgeStyle=orthogonalEdgeStyle;rounded=0;orthogonalLoop=1;jettySize=auto;html=1;exitX=0.5;exitY=0;exitDx=0;exitDy=0;entryX=1;entryY=0.5;entryDx=0;entryDy=0;" edge="1" parent="1" source="0zhq0VFXp20kZqqoGH3C-39" target="0zhq0VFXp20kZqqoGH3C-4">
          <mxGeometry relative="1" as="geometry">
            <Array as="points">
              <mxPoint x="2872" y="440" />
            </Array>
          </mxGeometry>
        </mxCell>
        <mxCell id="0zhq0VFXp20kZqqoGH3C-38" value="No" style="edgeLabel;html=1;align=center;verticalAlign=middle;resizable=0;points=[];" vertex="1" connectable="0" parent="0zhq0VFXp20kZqqoGH3C-37">
          <mxGeometry x="-0.9708" relative="1" as="geometry">
            <mxPoint y="-1" as="offset" />
          </mxGeometry>
        </mxCell>
        <mxCell id="0zhq0VFXp20kZqqoGH3C-39" value="7&lt;div&gt;return&lt;br&gt;&lt;/div&gt;&lt;div&gt;Keluar&lt;/div&gt;&lt;div&gt;Program&lt;/div&gt;" style="rhombus;whiteSpace=wrap;html=1;" vertex="1" parent="1">
          <mxGeometry x="2818" y="530" width="107.5" height="100" as="geometry" />
        </mxCell>
        <mxCell id="0zhq0VFXp20kZqqoGH3C-40" value="End" style="ellipse;whiteSpace=wrap;html=1;" vertex="1" parent="1">
          <mxGeometry x="2998" y="545" width="125" height="70" as="geometry" />
        </mxCell>
        <mxCell id="0zhq0VFXp20kZqqoGH3C-41" style="edgeStyle=orthogonalEdgeStyle;rounded=0;orthogonalLoop=1;jettySize=auto;html=1;exitX=0.5;exitY=1;exitDx=0;exitDy=0;entryX=0.5;entryY=0;entryDx=0;entryDy=0;" edge="1" parent="1" source="0zhq0VFXp20kZqqoGH3C-42" target="0zhq0VFXp20kZqqoGH3C-44">
          <mxGeometry relative="1" as="geometry" />
        </mxCell>
        <mxCell id="0zhq0VFXp20kZqqoGH3C-42" value="Memanggil function inputData" style="rounded=0;whiteSpace=wrap;html=1;" vertex="1" parent="1">
          <mxGeometry x="-416.2499999999998" y="670" width="120" height="60" as="geometry" />
        </mxCell>
        <mxCell id="0zhq0VFXp20kZqqoGH3C-43" style="edgeStyle=orthogonalEdgeStyle;rounded=0;orthogonalLoop=1;jettySize=auto;html=1;exitX=0.5;exitY=1;exitDx=0;exitDy=0;entryX=0.5;entryY=0;entryDx=0;entryDy=0;" edge="1" parent="1" source="0zhq0VFXp20kZqqoGH3C-44" target="0zhq0VFXp20kZqqoGH3C-49">
          <mxGeometry relative="1" as="geometry" />
        </mxCell>
        <mxCell id="0zhq0VFXp20kZqqoGH3C-44" value="Memilih Menu" style="shape=parallelogram;perimeter=parallelogramPerimeter;whiteSpace=wrap;html=1;fixedSize=1;" vertex="1" parent="1">
          <mxGeometry x="-422.4999999999998" y="766" width="132.5" height="60" as="geometry" />
        </mxCell>
        <mxCell id="0zhq0VFXp20kZqqoGH3C-45" style="edgeStyle=orthogonalEdgeStyle;rounded=0;orthogonalLoop=1;jettySize=auto;html=1;exitX=1;exitY=0.5;exitDx=0;exitDy=0;entryX=0.5;entryY=0;entryDx=0;entryDy=0;" edge="1" parent="1" source="0zhq0VFXp20kZqqoGH3C-49" target="0zhq0VFXp20kZqqoGH3C-53">
          <mxGeometry relative="1" as="geometry" />
        </mxCell>
        <mxCell id="0zhq0VFXp20kZqqoGH3C-46" value="Yes" style="edgeLabel;html=1;align=center;verticalAlign=middle;resizable=0;points=[];" vertex="1" connectable="0" parent="0zhq0VFXp20kZqqoGH3C-45">
          <mxGeometry x="-0.6517" y="-1" relative="1" as="geometry">
            <mxPoint x="-1" y="-1" as="offset" />
          </mxGeometry>
        </mxCell>
        <mxCell id="0zhq0VFXp20kZqqoGH3C-47" style="edgeStyle=orthogonalEdgeStyle;rounded=0;orthogonalLoop=1;jettySize=auto;html=1;exitX=0;exitY=0.5;exitDx=0;exitDy=0;entryX=0.5;entryY=0;entryDx=0;entryDy=0;" edge="1" parent="1" source="0zhq0VFXp20kZqqoGH3C-49" target="0zhq0VFXp20kZqqoGH3C-51">
          <mxGeometry relative="1" as="geometry" />
        </mxCell>
        <mxCell id="0zhq0VFXp20kZqqoGH3C-48" value="No" style="edgeLabel;html=1;align=center;verticalAlign=middle;resizable=0;points=[];" vertex="1" connectable="0" parent="0zhq0VFXp20kZqqoGH3C-47">
          <mxGeometry x="-0.731" y="1" relative="1" as="geometry">
            <mxPoint as="offset" />
          </mxGeometry>
        </mxCell>
        <mxCell id="0zhq0VFXp20kZqqoGH3C-49" value="Input Data Mahasiswa?&amp;nbsp;" style="rhombus;whiteSpace=wrap;html=1;" vertex="1" parent="1">
          <mxGeometry x="-422.4999999999999" y="860" width="130" height="120" as="geometry" />
        </mxCell>
        <mxCell id="0zhq0VFXp20kZqqoGH3C-50" style="edgeStyle=orthogonalEdgeStyle;rounded=0;orthogonalLoop=1;jettySize=auto;html=1;exitX=0.5;exitY=1;exitDx=0;exitDy=0;entryX=0.5;entryY=0;entryDx=0;entryDy=0;" edge="1" parent="1" source="0zhq0VFXp20kZqqoGH3C-51" target="0zhq0VFXp20kZqqoGH3C-62">
          <mxGeometry relative="1" as="geometry" />
        </mxCell>
        <mxCell id="0zhq0VFXp20kZqqoGH3C-51" value="Masukkan NIM&lt;div&gt;Mahasiswa&lt;/div&gt;" style="shape=parallelogram;perimeter=parallelogramPerimeter;whiteSpace=wrap;html=1;fixedSize=1;" vertex="1" parent="1">
          <mxGeometry x="-538.1799999999997" y="1017" width="160" height="70" as="geometry" />
        </mxCell>
        <mxCell id="0zhq0VFXp20kZqqoGH3C-52" style="edgeStyle=orthogonalEdgeStyle;rounded=0;orthogonalLoop=1;jettySize=auto;html=1;exitX=0.5;exitY=1;exitDx=0;exitDy=0;entryX=0.5;entryY=0;entryDx=0;entryDy=0;" edge="1" parent="1" source="0zhq0VFXp20kZqqoGH3C-53" target="0zhq0VFXp20kZqqoGH3C-55">
          <mxGeometry relative="1" as="geometry" />
        </mxCell>
        <mxCell id="0zhq0VFXp20kZqqoGH3C-53" value="Masukkan&lt;div&gt;Nama&lt;/div&gt;&lt;div&gt;Mahasiswa&lt;/div&gt;" style="shape=parallelogram;perimeter=parallelogramPerimeter;whiteSpace=wrap;html=1;fixedSize=1;" vertex="1" parent="1">
          <mxGeometry x="-288.3099999999999" y="1014" width="160" height="70" as="geometry" />
        </mxCell>
        <mxCell id="0zhq0VFXp20kZqqoGH3C-54" style="edgeStyle=orthogonalEdgeStyle;rounded=0;orthogonalLoop=1;jettySize=auto;html=1;exitX=0.5;exitY=1;exitDx=0;exitDy=0;entryX=0.5;entryY=0;entryDx=0;entryDy=0;" edge="1" parent="1" source="0zhq0VFXp20kZqqoGH3C-55" target="0zhq0VFXp20kZqqoGH3C-57">
          <mxGeometry relative="1" as="geometry" />
        </mxCell>
        <mxCell id="0zhq0VFXp20kZqqoGH3C-55" value="Masukkan&lt;div&gt;Semester&lt;/div&gt;&lt;div&gt;Mahasiswa&lt;/div&gt;" style="shape=parallelogram;perimeter=parallelogramPerimeter;whiteSpace=wrap;html=1;fixedSize=1;" vertex="1" parent="1">
          <mxGeometry x="-288.3099999999999" y="1107" width="160" height="70" as="geometry" />
        </mxCell>
        <mxCell id="0zhq0VFXp20kZqqoGH3C-56" style="edgeStyle=orthogonalEdgeStyle;rounded=0;orthogonalLoop=1;jettySize=auto;html=1;exitX=0.5;exitY=1;exitDx=0;exitDy=0;entryX=0.5;entryY=0;entryDx=0;entryDy=0;" edge="1" parent="1" source="0zhq0VFXp20kZqqoGH3C-57" target="0zhq0VFXp20kZqqoGH3C-80">
          <mxGeometry relative="1" as="geometry" />
        </mxCell>
        <mxCell id="0zhq0VFXp20kZqqoGH3C-57" value="Masukkan&lt;div&gt;Jurusan&lt;/div&gt;&lt;div&gt;Mahasiswa&lt;/div&gt;" style="shape=parallelogram;perimeter=parallelogramPerimeter;whiteSpace=wrap;html=1;fixedSize=1;" vertex="1" parent="1">
          <mxGeometry x="-288.3099999999999" y="1207" width="160" height="70" as="geometry" />
        </mxCell>
        <mxCell id="0zhq0VFXp20kZqqoGH3C-58" style="edgeStyle=orthogonalEdgeStyle;rounded=0;orthogonalLoop=1;jettySize=auto;html=1;exitX=0;exitY=0.5;exitDx=0;exitDy=0;entryX=0;entryY=0.5;entryDx=0;entryDy=0;" edge="1" parent="1" source="0zhq0VFXp20kZqqoGH3C-62" target="0zhq0VFXp20kZqqoGH3C-4">
          <mxGeometry relative="1" as="geometry">
            <Array as="points">
              <mxPoint x="-580" y="1187" />
              <mxPoint x="-580" y="440" />
            </Array>
          </mxGeometry>
        </mxCell>
        <mxCell id="0zhq0VFXp20kZqqoGH3C-59" value="No" style="edgeLabel;html=1;align=center;verticalAlign=middle;resizable=0;points=[];" vertex="1" connectable="0" parent="0zhq0VFXp20kZqqoGH3C-58">
          <mxGeometry x="-0.9307" y="-1" relative="1" as="geometry">
            <mxPoint as="offset" />
          </mxGeometry>
        </mxCell>
        <mxCell id="0zhq0VFXp20kZqqoGH3C-60" style="edgeStyle=orthogonalEdgeStyle;rounded=0;orthogonalLoop=1;jettySize=auto;html=1;exitX=0.5;exitY=1;exitDx=0;exitDy=0;entryX=0.5;entryY=0;entryDx=0;entryDy=0;" edge="1" parent="1" source="0zhq0VFXp20kZqqoGH3C-62" target="0zhq0VFXp20kZqqoGH3C-64">
          <mxGeometry relative="1" as="geometry" />
        </mxCell>
        <mxCell id="0zhq0VFXp20kZqqoGH3C-61" value="Yes" style="edgeLabel;html=1;align=center;verticalAlign=middle;resizable=0;points=[];" vertex="1" connectable="0" parent="0zhq0VFXp20kZqqoGH3C-60">
          <mxGeometry x="-0.2638" relative="1" as="geometry">
            <mxPoint as="offset" />
          </mxGeometry>
        </mxCell>
        <mxCell id="0zhq0VFXp20kZqqoGH3C-62" value="Apakah Benar?" style="rhombus;whiteSpace=wrap;html=1;" vertex="1" parent="1">
          <mxGeometry x="-523.1799999999997" y="1127" width="130" height="120" as="geometry" />
        </mxCell>
        <mxCell id="0zhq0VFXp20kZqqoGH3C-63" style="edgeStyle=orthogonalEdgeStyle;rounded=0;orthogonalLoop=1;jettySize=auto;html=1;exitX=0.5;exitY=1;exitDx=0;exitDy=0;entryX=0.5;entryY=0;entryDx=0;entryDy=0;" edge="1" parent="1" source="0zhq0VFXp20kZqqoGH3C-64" target="0zhq0VFXp20kZqqoGH3C-66">
          <mxGeometry relative="1" as="geometry" />
        </mxCell>
        <mxCell id="0zhq0VFXp20kZqqoGH3C-64" value="Masukkan Nama&lt;div&gt;Mata Kuliah&lt;/div&gt;" style="shape=parallelogram;perimeter=parallelogramPerimeter;whiteSpace=wrap;html=1;fixedSize=1;" vertex="1" parent="1">
          <mxGeometry x="-538.1800000000001" y="1277" width="160" height="70" as="geometry" />
        </mxCell>
        <mxCell id="0zhq0VFXp20kZqqoGH3C-65" style="edgeStyle=orthogonalEdgeStyle;rounded=0;orthogonalLoop=1;jettySize=auto;html=1;exitX=0;exitY=0.5;exitDx=0;exitDy=0;entryX=0.5;entryY=1;entryDx=0;entryDy=0;" edge="1" parent="1" source="0zhq0VFXp20kZqqoGH3C-66" target="0zhq0VFXp20kZqqoGH3C-68">
          <mxGeometry relative="1" as="geometry" />
        </mxCell>
        <mxCell id="0zhq0VFXp20kZqqoGH3C-66" value="Masukkan Jumlah SKS" style="shape=parallelogram;perimeter=parallelogramPerimeter;whiteSpace=wrap;html=1;fixedSize=1;" vertex="1" parent="1">
          <mxGeometry x="-538.1800000000001" y="1390" width="160" height="70" as="geometry" />
        </mxCell>
        <mxCell id="0zhq0VFXp20kZqqoGH3C-67" style="edgeStyle=orthogonalEdgeStyle;rounded=0;orthogonalLoop=1;jettySize=auto;html=1;exitX=0.5;exitY=0;exitDx=0;exitDy=0;entryX=0.5;entryY=1;entryDx=0;entryDy=0;" edge="1" parent="1" source="0zhq0VFXp20kZqqoGH3C-68" target="0zhq0VFXp20kZqqoGH3C-70">
          <mxGeometry relative="1" as="geometry" />
        </mxCell>
        <mxCell id="0zhq0VFXp20kZqqoGH3C-68" value="Masukkan Nilai UTS" style="shape=parallelogram;perimeter=parallelogramPerimeter;whiteSpace=wrap;html=1;fixedSize=1;" vertex="1" parent="1">
          <mxGeometry x="-763.1800000000001" y="1265" width="160" height="70" as="geometry" />
        </mxCell>
        <mxCell id="0zhq0VFXp20kZqqoGH3C-69" style="edgeStyle=orthogonalEdgeStyle;rounded=0;orthogonalLoop=1;jettySize=auto;html=1;exitX=0.5;exitY=0;exitDx=0;exitDy=0;entryX=0.5;entryY=1;entryDx=0;entryDy=0;" edge="1" parent="1" source="0zhq0VFXp20kZqqoGH3C-70" target="0zhq0VFXp20kZqqoGH3C-72">
          <mxGeometry relative="1" as="geometry" />
        </mxCell>
        <mxCell id="0zhq0VFXp20kZqqoGH3C-70" value="Masukkan Nilai UAS" style="shape=parallelogram;perimeter=parallelogramPerimeter;whiteSpace=wrap;html=1;fixedSize=1;" vertex="1" parent="1">
          <mxGeometry x="-763.1800000000001" y="1155" width="160" height="70" as="geometry" />
        </mxCell>
        <mxCell id="0zhq0VFXp20kZqqoGH3C-71" style="edgeStyle=orthogonalEdgeStyle;rounded=0;orthogonalLoop=1;jettySize=auto;html=1;exitX=0.5;exitY=0;exitDx=0;exitDy=0;entryX=0.5;entryY=1;entryDx=0;entryDy=0;" edge="1" parent="1" source="0zhq0VFXp20kZqqoGH3C-72" target="0zhq0VFXp20kZqqoGH3C-74">
          <mxGeometry relative="1" as="geometry" />
        </mxCell>
        <mxCell id="0zhq0VFXp20kZqqoGH3C-72" value="Masukkan Nilai QUIZ" style="shape=parallelogram;perimeter=parallelogramPerimeter;whiteSpace=wrap;html=1;fixedSize=1;" vertex="1" parent="1">
          <mxGeometry x="-763.1800000000001" y="1045" width="160" height="70" as="geometry" />
        </mxCell>
        <mxCell id="0zhq0VFXp20kZqqoGH3C-73" style="edgeStyle=orthogonalEdgeStyle;rounded=0;orthogonalLoop=1;jettySize=auto;html=1;exitX=0.5;exitY=0;exitDx=0;exitDy=0;entryX=0.5;entryY=1;entryDx=0;entryDy=0;" edge="1" parent="1" source="0zhq0VFXp20kZqqoGH3C-74" target="0zhq0VFXp20kZqqoGH3C-76">
          <mxGeometry relative="1" as="geometry" />
        </mxCell>
        <mxCell id="0zhq0VFXp20kZqqoGH3C-74" value="Total = (UTS + UAS + Quiz) / 3" style="rounded=0;whiteSpace=wrap;html=1;" vertex="1" parent="1">
          <mxGeometry x="-753.1800000000001" y="937" width="140" height="60" as="geometry" />
        </mxCell>
        <mxCell id="0zhq0VFXp20kZqqoGH3C-75" style="edgeStyle=orthogonalEdgeStyle;rounded=0;orthogonalLoop=1;jettySize=auto;html=1;exitX=0.5;exitY=0;exitDx=0;exitDy=0;entryX=0.5;entryY=1;entryDx=0;entryDy=0;" edge="1" parent="1" source="0zhq0VFXp20kZqqoGH3C-76" target="0zhq0VFXp20kZqqoGH3C-78">
          <mxGeometry relative="1" as="geometry" />
        </mxCell>
        <mxCell id="0zhq0VFXp20kZqqoGH3C-76" value="Menentukan Grade dari Total" style="rounded=0;whiteSpace=wrap;html=1;" vertex="1" parent="1">
          <mxGeometry x="-753.1800000000001" y="832" width="140" height="60" as="geometry" />
        </mxCell>
        <mxCell id="0zhq0VFXp20kZqqoGH3C-77" style="edgeStyle=orthogonalEdgeStyle;rounded=0;orthogonalLoop=1;jettySize=auto;html=1;exitX=0.5;exitY=0;exitDx=0;exitDy=0;entryX=0;entryY=0.5;entryDx=0;entryDy=0;" edge="1" parent="1" source="0zhq0VFXp20kZqqoGH3C-78" target="0zhq0VFXp20kZqqoGH3C-4">
          <mxGeometry relative="1" as="geometry">
            <Array as="points">
              <mxPoint x="-683" y="440" />
            </Array>
          </mxGeometry>
        </mxCell>
        <mxCell id="0zhq0VFXp20kZqqoGH3C-78" value="Menyimpan ke dalam variabel struct" style="rounded=0;whiteSpace=wrap;html=1;" vertex="1" parent="1">
          <mxGeometry x="-753.1800000000001" y="735" width="140" height="60" as="geometry" />
        </mxCell>
        <mxCell id="0zhq0VFXp20kZqqoGH3C-79" style="edgeStyle=orthogonalEdgeStyle;rounded=0;orthogonalLoop=1;jettySize=auto;html=1;exitX=0.5;exitY=1;exitDx=0;exitDy=0;entryX=0.5;entryY=0;entryDx=0;entryDy=0;" edge="1" parent="1" source="0zhq0VFXp20kZqqoGH3C-80" target="0zhq0VFXp20kZqqoGH3C-82">
          <mxGeometry relative="1" as="geometry" />
        </mxCell>
        <mxCell id="0zhq0VFXp20kZqqoGH3C-80" value="NIM = NIM + 1" style="rounded=0;whiteSpace=wrap;html=1;" vertex="1" parent="1">
          <mxGeometry x="-268.1199999999999" y="1310" width="120" height="60" as="geometry" />
        </mxCell>
        <mxCell id="0zhq0VFXp20kZqqoGH3C-81" style="edgeStyle=orthogonalEdgeStyle;rounded=0;orthogonalLoop=1;jettySize=auto;html=1;exitX=0.5;exitY=1;exitDx=0;exitDy=0;entryX=0;entryY=0.5;entryDx=0;entryDy=0;" edge="1" parent="1" source="0zhq0VFXp20kZqqoGH3C-82" target="0zhq0VFXp20kZqqoGH3C-4">
          <mxGeometry relative="1" as="geometry">
            <Array as="points">
              <mxPoint x="-208" y="1510" />
              <mxPoint x="-800" y="1510" />
              <mxPoint x="-800" y="440" />
            </Array>
          </mxGeometry>
        </mxCell>
        <mxCell id="0zhq0VFXp20kZqqoGH3C-82" value="jumlahMahasiswa = jumlahMahasiswa + 1" style="rounded=0;whiteSpace=wrap;html=1;" vertex="1" parent="1">
          <mxGeometry x="-340" y="1400" width="263.75" height="60" as="geometry" />
        </mxCell>
        <mxCell id="0zhq0VFXp20kZqqoGH3C-83" style="edgeStyle=orthogonalEdgeStyle;rounded=0;orthogonalLoop=1;jettySize=auto;html=1;exitX=0.5;exitY=1;exitDx=0;exitDy=0;entryX=0.5;entryY=0;entryDx=0;entryDy=0;" edge="1" parent="1" source="0zhq0VFXp20kZqqoGH3C-84" target="0zhq0VFXp20kZqqoGH3C-86">
          <mxGeometry relative="1" as="geometry" />
        </mxCell>
        <mxCell id="0zhq0VFXp20kZqqoGH3C-84" value="Memanggil function tampilkanData" style="rounded=0;whiteSpace=wrap;html=1;" vertex="1" parent="1">
          <mxGeometry x="-24.249999999999886" y="670" width="120" height="60" as="geometry" />
        </mxCell>
        <mxCell id="0zhq0VFXp20kZqqoGH3C-85" style="edgeStyle=orthogonalEdgeStyle;rounded=0;orthogonalLoop=1;jettySize=auto;html=1;exitX=0.5;exitY=1;exitDx=0;exitDy=0;entryX=0.5;entryY=0;entryDx=0;entryDy=0;" edge="1" parent="1" source="0zhq0VFXp20kZqqoGH3C-86" target="0zhq0VFXp20kZqqoGH3C-91">
          <mxGeometry relative="1" as="geometry" />
        </mxCell>
        <mxCell id="0zhq0VFXp20kZqqoGH3C-86" value="Memilih Menu" style="shape=parallelogram;perimeter=parallelogramPerimeter;whiteSpace=wrap;html=1;fixedSize=1;" vertex="1" parent="1">
          <mxGeometry x="-25.499999999999886" y="766" width="122.5" height="60" as="geometry" />
        </mxCell>
        <mxCell id="0zhq0VFXp20kZqqoGH3C-87" style="edgeStyle=orthogonalEdgeStyle;rounded=0;orthogonalLoop=1;jettySize=auto;html=1;exitX=0.5;exitY=1;exitDx=0;exitDy=0;entryX=0.5;entryY=0;entryDx=0;entryDy=0;" edge="1" parent="1" source="0zhq0VFXp20kZqqoGH3C-91" target="0zhq0VFXp20kZqqoGH3C-96">
          <mxGeometry relative="1" as="geometry" />
        </mxCell>
        <mxCell id="0zhq0VFXp20kZqqoGH3C-88" value="No" style="edgeLabel;html=1;align=center;verticalAlign=middle;resizable=0;points=[];" vertex="1" connectable="0" parent="0zhq0VFXp20kZqqoGH3C-87">
          <mxGeometry x="-0.3007" y="1" relative="1" as="geometry">
            <mxPoint as="offset" />
          </mxGeometry>
        </mxCell>
        <mxCell id="0zhq0VFXp20kZqqoGH3C-89" style="edgeStyle=orthogonalEdgeStyle;rounded=0;orthogonalLoop=1;jettySize=auto;html=1;exitX=1;exitY=0.5;exitDx=0;exitDy=0;entryX=0;entryY=0.5;entryDx=0;entryDy=0;" edge="1" parent="1" source="0zhq0VFXp20kZqqoGH3C-91" target="0zhq0VFXp20kZqqoGH3C-111">
          <mxGeometry relative="1" as="geometry" />
        </mxCell>
        <mxCell id="0zhq0VFXp20kZqqoGH3C-90" value="Yes" style="edgeLabel;html=1;align=center;verticalAlign=middle;resizable=0;points=[];" vertex="1" connectable="0" parent="0zhq0VFXp20kZqqoGH3C-89">
          <mxGeometry x="-0.3246" y="1" relative="1" as="geometry">
            <mxPoint as="offset" />
          </mxGeometry>
        </mxCell>
        <mxCell id="0zhq0VFXp20kZqqoGH3C-91" value="&lt;span style=&quot;background-color: initial;&quot;&gt;Kumpulan Data&lt;/span&gt;&lt;div&gt;Mahasiswa ?&lt;/div&gt;" style="rhombus;whiteSpace=wrap;html=1;" vertex="1" parent="1">
          <mxGeometry x="-29.25" y="860" width="130" height="120" as="geometry" />
        </mxCell>
        <mxCell id="0zhq0VFXp20kZqqoGH3C-92" style="edgeStyle=orthogonalEdgeStyle;rounded=0;orthogonalLoop=1;jettySize=auto;html=1;exitX=1;exitY=0.5;exitDx=0;exitDy=0;entryX=0;entryY=0.5;entryDx=0;entryDy=0;" edge="1" parent="1" source="0zhq0VFXp20kZqqoGH3C-96" target="0zhq0VFXp20kZqqoGH3C-100">
          <mxGeometry relative="1" as="geometry" />
        </mxCell>
        <mxCell id="0zhq0VFXp20kZqqoGH3C-93" value="Yes" style="edgeLabel;html=1;align=center;verticalAlign=middle;resizable=0;points=[];" vertex="1" connectable="0" parent="0zhq0VFXp20kZqqoGH3C-92">
          <mxGeometry x="-0.3267" y="1" relative="1" as="geometry">
            <mxPoint as="offset" />
          </mxGeometry>
        </mxCell>
        <mxCell id="0zhq0VFXp20kZqqoGH3C-94" style="edgeStyle=orthogonalEdgeStyle;rounded=0;orthogonalLoop=1;jettySize=auto;html=1;exitX=0.5;exitY=1;exitDx=0;exitDy=0;entryX=0;entryY=0.5;entryDx=0;entryDy=0;" edge="1" parent="1" source="0zhq0VFXp20kZqqoGH3C-96" target="0zhq0VFXp20kZqqoGH3C-115">
          <mxGeometry relative="1" as="geometry">
            <Array as="points">
              <mxPoint x="36" y="1391" />
            </Array>
          </mxGeometry>
        </mxCell>
        <mxCell id="0zhq0VFXp20kZqqoGH3C-95" value="No" style="edgeLabel;html=1;align=center;verticalAlign=middle;resizable=0;points=[];" vertex="1" connectable="0" parent="0zhq0VFXp20kZqqoGH3C-94">
          <mxGeometry x="-0.5361" y="-1" relative="1" as="geometry">
            <mxPoint as="offset" />
          </mxGeometry>
        </mxCell>
        <mxCell id="0zhq0VFXp20kZqqoGH3C-96" value="&lt;div&gt;&lt;span style=&quot;background-color: initial;&quot;&gt;Daftar Mata Kuliah yang di ambil mahasiswa ?&lt;/span&gt;&lt;/div&gt;" style="rhombus;whiteSpace=wrap;html=1;" vertex="1" parent="1">
          <mxGeometry x="-29.249999999999886" y="1014" width="130" height="120" as="geometry" />
        </mxCell>
        <mxCell id="0zhq0VFXp20kZqqoGH3C-97" style="edgeStyle=orthogonalEdgeStyle;rounded=0;orthogonalLoop=1;jettySize=auto;html=1;exitX=1;exitY=0.5;exitDx=0;exitDy=0;entryX=0;entryY=0.5;entryDx=0;entryDy=0;" edge="1" parent="1" source="0zhq0VFXp20kZqqoGH3C-98" target="0zhq0VFXp20kZqqoGH3C-4">
          <mxGeometry relative="1" as="geometry">
            <Array as="points">
              <mxPoint x="600" y="920" />
              <mxPoint x="600" y="1730" />
              <mxPoint x="-800" y="1730" />
              <mxPoint x="-800" y="440" />
            </Array>
          </mxGeometry>
        </mxCell>
        <mxCell id="0zhq0VFXp20kZqqoGH3C-98" value="Menampilkan Seluruh Data Mahasiswa di dalam Array Mahasiswa" style="rounded=0;whiteSpace=wrap;html=1;" vertex="1" parent="1">
          <mxGeometry x="340" y="890" width="170" height="60" as="geometry" />
        </mxCell>
        <mxCell id="0zhq0VFXp20kZqqoGH3C-99" style="edgeStyle=orthogonalEdgeStyle;rounded=0;orthogonalLoop=1;jettySize=auto;html=1;exitX=1;exitY=0.5;exitDx=0;exitDy=0;entryX=0;entryY=0.5;entryDx=0;entryDy=0;" edge="1" parent="1" source="0zhq0VFXp20kZqqoGH3C-100" target="0zhq0VFXp20kZqqoGH3C-107">
          <mxGeometry relative="1" as="geometry" />
        </mxCell>
        <mxCell id="0zhq0VFXp20kZqqoGH3C-100" value="Masukkan NIM&lt;div&gt;Mahasiswa&lt;/div&gt;" style="shape=parallelogram;perimeter=parallelogramPerimeter;whiteSpace=wrap;html=1;fixedSize=1;" vertex="1" parent="1">
          <mxGeometry x="130.00000000000023" y="1039" width="160" height="70" as="geometry" />
        </mxCell>
        <mxCell id="0zhq0VFXp20kZqqoGH3C-101" style="edgeStyle=orthogonalEdgeStyle;rounded=0;orthogonalLoop=1;jettySize=auto;html=1;exitX=0;exitY=0.5;exitDx=0;exitDy=0;entryX=1;entryY=0.5;entryDx=0;entryDy=0;" edge="1" parent="1" source="0zhq0VFXp20kZqqoGH3C-105" target="0zhq0VFXp20kZqqoGH3C-113">
          <mxGeometry relative="1" as="geometry" />
        </mxCell>
        <mxCell id="0zhq0VFXp20kZqqoGH3C-102" value="Yes" style="edgeLabel;html=1;align=center;verticalAlign=middle;resizable=0;points=[];" vertex="1" connectable="0" parent="0zhq0VFXp20kZqqoGH3C-101">
          <mxGeometry x="-0.1254" y="1" relative="1" as="geometry">
            <mxPoint as="offset" />
          </mxGeometry>
        </mxCell>
        <mxCell id="0zhq0VFXp20kZqqoGH3C-103" style="edgeStyle=orthogonalEdgeStyle;rounded=0;orthogonalLoop=1;jettySize=auto;html=1;exitX=1;exitY=0.5;exitDx=0;exitDy=0;entryX=0;entryY=0.5;entryDx=0;entryDy=0;" edge="1" parent="1" source="0zhq0VFXp20kZqqoGH3C-105" target="0zhq0VFXp20kZqqoGH3C-4">
          <mxGeometry relative="1" as="geometry">
            <Array as="points">
              <mxPoint x="570" y="1194" />
              <mxPoint x="570" y="1710" />
              <mxPoint x="-800" y="1710" />
              <mxPoint x="-800" y="440" />
            </Array>
          </mxGeometry>
        </mxCell>
        <mxCell id="0zhq0VFXp20kZqqoGH3C-104" value="No" style="edgeLabel;html=1;align=center;verticalAlign=middle;resizable=0;points=[];" vertex="1" connectable="0" parent="0zhq0VFXp20kZqqoGH3C-103">
          <mxGeometry x="-0.9841" y="2" relative="1" as="geometry">
            <mxPoint y="1" as="offset" />
          </mxGeometry>
        </mxCell>
        <mxCell id="0zhq0VFXp20kZqqoGH3C-105" value="Apakah NIM Sesuai?" style="rhombus;whiteSpace=wrap;html=1;" vertex="1" parent="1">
          <mxGeometry x="359.0000000000002" y="1134" width="130" height="120" as="geometry" />
        </mxCell>
        <mxCell id="0zhq0VFXp20kZqqoGH3C-106" style="edgeStyle=orthogonalEdgeStyle;rounded=0;orthogonalLoop=1;jettySize=auto;html=1;exitX=0.5;exitY=1;exitDx=0;exitDy=0;entryX=0.5;entryY=0;entryDx=0;entryDy=0;" edge="1" parent="1" source="0zhq0VFXp20kZqqoGH3C-107" target="0zhq0VFXp20kZqqoGH3C-105">
          <mxGeometry relative="1" as="geometry" />
        </mxCell>
        <mxCell id="0zhq0VFXp20kZqqoGH3C-107" value="Melakukan Perulangan Data Mahasiswa" style="rounded=0;whiteSpace=wrap;html=1;" vertex="1" parent="1">
          <mxGeometry x="339" y="1044" width="170" height="60" as="geometry" />
        </mxCell>
        <mxCell id="0zhq0VFXp20kZqqoGH3C-108" style="edgeStyle=orthogonalEdgeStyle;rounded=0;orthogonalLoop=1;jettySize=auto;html=1;exitX=1;exitY=0.5;exitDx=0;exitDy=0;entryX=0;entryY=0.5;entryDx=0;entryDy=0;" edge="1" parent="1" target="0zhq0VFXp20kZqqoGH3C-4">
          <mxGeometry relative="1" as="geometry">
            <mxPoint x="306" y="1273" as="sourcePoint" />
            <mxPoint x="5" y="427" as="targetPoint" />
            <Array as="points">
              <mxPoint x="550" y="1273" />
              <mxPoint x="550" y="1697" />
              <mxPoint x="-800" y="1697" />
              <mxPoint x="-800" y="440" />
            </Array>
          </mxGeometry>
        </mxCell>
        <mxCell id="0zhq0VFXp20kZqqoGH3C-109" value="Menampilkan seluruh data mata kuliah di dalam Array MataKuliah" style="rounded=0;whiteSpace=wrap;html=1;" vertex="1" parent="1">
          <mxGeometry x="136" y="1256" width="170" height="60" as="geometry" />
        </mxCell>
        <mxCell id="0zhq0VFXp20kZqqoGH3C-110" style="edgeStyle=orthogonalEdgeStyle;rounded=0;orthogonalLoop=1;jettySize=auto;html=1;exitX=1;exitY=0.5;exitDx=0;exitDy=0;entryX=0;entryY=0.5;entryDx=0;entryDy=0;" edge="1" parent="1" source="0zhq0VFXp20kZqqoGH3C-111" target="0zhq0VFXp20kZqqoGH3C-98">
          <mxGeometry relative="1" as="geometry" />
        </mxCell>
        <mxCell id="0zhq0VFXp20kZqqoGH3C-111" value="Melakukan Perulangan Data Mahasiswa" style="rounded=0;whiteSpace=wrap;html=1;" vertex="1" parent="1">
          <mxGeometry x="136" y="890" width="170" height="60" as="geometry" />
        </mxCell>
        <mxCell id="0zhq0VFXp20kZqqoGH3C-112" style="edgeStyle=orthogonalEdgeStyle;rounded=0;orthogonalLoop=1;jettySize=auto;html=1;exitX=0.5;exitY=1;exitDx=0;exitDy=0;entryX=0.5;entryY=0;entryDx=0;entryDy=0;" edge="1" parent="1" source="0zhq0VFXp20kZqqoGH3C-113" target="0zhq0VFXp20kZqqoGH3C-109">
          <mxGeometry relative="1" as="geometry" />
        </mxCell>
        <mxCell id="0zhq0VFXp20kZqqoGH3C-113" value="Melakukan Perulangan Data Mata Kuliah" style="rounded=0;whiteSpace=wrap;html=1;" vertex="1" parent="1">
          <mxGeometry x="136" y="1164" width="170" height="60" as="geometry" />
        </mxCell>
        <mxCell id="0zhq0VFXp20kZqqoGH3C-114" style="edgeStyle=orthogonalEdgeStyle;rounded=0;orthogonalLoop=1;jettySize=auto;html=1;exitX=1;exitY=0.5;exitDx=0;exitDy=0;entryX=0;entryY=0.5;entryDx=0;entryDy=0;" edge="1" parent="1" source="0zhq0VFXp20kZqqoGH3C-115" target="0zhq0VFXp20kZqqoGH3C-122">
          <mxGeometry relative="1" as="geometry" />
        </mxCell>
        <mxCell id="0zhq0VFXp20kZqqoGH3C-115" value="Masukkan Nama Mata Kuliah&amp;nbsp;" style="shape=parallelogram;perimeter=parallelogramPerimeter;whiteSpace=wrap;html=1;fixedSize=1;" vertex="1" parent="1">
          <mxGeometry x="141.00000000000023" y="1356" width="160" height="70" as="geometry" />
        </mxCell>
        <mxCell id="0zhq0VFXp20kZqqoGH3C-116" style="edgeStyle=orthogonalEdgeStyle;rounded=0;orthogonalLoop=1;jettySize=auto;html=1;exitX=0;exitY=0.5;exitDx=0;exitDy=0;entryX=1;entryY=0.5;entryDx=0;entryDy=0;" edge="1" parent="1" source="0zhq0VFXp20kZqqoGH3C-120" target="0zhq0VFXp20kZqqoGH3C-124">
          <mxGeometry relative="1" as="geometry" />
        </mxCell>
        <mxCell id="0zhq0VFXp20kZqqoGH3C-117" value="Yes" style="edgeLabel;html=1;align=center;verticalAlign=middle;resizable=0;points=[];" vertex="1" connectable="0" parent="0zhq0VFXp20kZqqoGH3C-116">
          <mxGeometry x="-0.1111" y="1" relative="1" as="geometry">
            <mxPoint as="offset" />
          </mxGeometry>
        </mxCell>
        <mxCell id="0zhq0VFXp20kZqqoGH3C-118" style="edgeStyle=orthogonalEdgeStyle;rounded=0;orthogonalLoop=1;jettySize=auto;html=1;exitX=0.5;exitY=1;exitDx=0;exitDy=0;entryX=0;entryY=0.5;entryDx=0;entryDy=0;" edge="1" parent="1" source="0zhq0VFXp20kZqqoGH3C-120" target="0zhq0VFXp20kZqqoGH3C-4">
          <mxGeometry relative="1" as="geometry">
            <mxPoint x="-470" y="618.3333333333333" as="targetPoint" />
            <Array as="points">
              <mxPoint x="424" y="1680" />
              <mxPoint x="-800" y="1680" />
              <mxPoint x="-800" y="440" />
            </Array>
          </mxGeometry>
        </mxCell>
        <mxCell id="0zhq0VFXp20kZqqoGH3C-119" value="No" style="edgeLabel;html=1;align=center;verticalAlign=middle;resizable=0;points=[];" vertex="1" connectable="0" parent="0zhq0VFXp20kZqqoGH3C-118">
          <mxGeometry x="-0.9858" relative="1" as="geometry">
            <mxPoint x="-54" as="offset" />
          </mxGeometry>
        </mxCell>
        <mxCell id="0zhq0VFXp20kZqqoGH3C-120" value="Apakah Nama Mata Kuliah Sesuai?" style="rhombus;whiteSpace=wrap;html=1;" vertex="1" parent="1">
          <mxGeometry x="359.0000000000002" y="1547" width="130" height="120" as="geometry" />
        </mxCell>
        <mxCell id="0zhq0VFXp20kZqqoGH3C-121" style="edgeStyle=orthogonalEdgeStyle;rounded=0;orthogonalLoop=1;jettySize=auto;html=1;exitX=0.5;exitY=1;exitDx=0;exitDy=0;entryX=0.5;entryY=0;entryDx=0;entryDy=0;" edge="1" parent="1" source="0zhq0VFXp20kZqqoGH3C-122" target="0zhq0VFXp20kZqqoGH3C-126">
          <mxGeometry relative="1" as="geometry" />
        </mxCell>
        <mxCell id="0zhq0VFXp20kZqqoGH3C-122" value="Melakukan Perulangan Data Mahasiswa" style="rounded=0;whiteSpace=wrap;html=1;" vertex="1" parent="1">
          <mxGeometry x="339" y="1361" width="170" height="60" as="geometry" />
        </mxCell>
        <mxCell id="0zhq0VFXp20kZqqoGH3C-123" style="edgeStyle=orthogonalEdgeStyle;rounded=0;orthogonalLoop=1;jettySize=auto;html=1;exitX=0;exitY=0.5;exitDx=0;exitDy=0;entryX=0;entryY=0.5;entryDx=0;entryDy=0;" edge="1" parent="1" source="0zhq0VFXp20kZqqoGH3C-124" target="0zhq0VFXp20kZqqoGH3C-4">
          <mxGeometry relative="1" as="geometry">
            <Array as="points">
              <mxPoint x="-800" y="1607" />
              <mxPoint x="-800" y="440" />
            </Array>
          </mxGeometry>
        </mxCell>
        <mxCell id="0zhq0VFXp20kZqqoGH3C-124" value="Menampilkan seluruh data mahasiswa di dalam array mahasiswa" style="rounded=0;whiteSpace=wrap;html=1;" vertex="1" parent="1">
          <mxGeometry x="147" y="1577" width="170" height="60" as="geometry" />
        </mxCell>
        <mxCell id="0zhq0VFXp20kZqqoGH3C-125" style="edgeStyle=orthogonalEdgeStyle;rounded=0;orthogonalLoop=1;jettySize=auto;html=1;exitX=0.5;exitY=1;exitDx=0;exitDy=0;entryX=0.5;entryY=0;entryDx=0;entryDy=0;" edge="1" parent="1" source="0zhq0VFXp20kZqqoGH3C-126" target="0zhq0VFXp20kZqqoGH3C-120">
          <mxGeometry relative="1" as="geometry" />
        </mxCell>
        <mxCell id="0zhq0VFXp20kZqqoGH3C-126" value="Melakukan Perulangan Data Mata Kuliah" style="rounded=0;whiteSpace=wrap;html=1;" vertex="1" parent="1">
          <mxGeometry x="339" y="1460" width="170" height="60" as="geometry" />
        </mxCell>
        <mxCell id="0zhq0VFXp20kZqqoGH3C-127" style="edgeStyle=orthogonalEdgeStyle;rounded=0;orthogonalLoop=1;jettySize=auto;html=1;exitX=0.5;exitY=1;exitDx=0;exitDy=0;entryX=0.5;entryY=0;entryDx=0;entryDy=0;" edge="1" parent="1" source="0zhq0VFXp20kZqqoGH3C-128" target="0zhq0VFXp20kZqqoGH3C-130">
          <mxGeometry relative="1" as="geometry" />
        </mxCell>
        <mxCell id="0zhq0VFXp20kZqqoGH3C-128" value="Memanggil function urutkanNilai" style="rounded=0;whiteSpace=wrap;html=1;" vertex="1" parent="1">
          <mxGeometry x="2611.74" y="670" width="120" height="60" as="geometry" />
        </mxCell>
        <mxCell id="0zhq0VFXp20kZqqoGH3C-129" style="edgeStyle=orthogonalEdgeStyle;rounded=0;orthogonalLoop=1;jettySize=auto;html=1;exitX=0.5;exitY=1;exitDx=0;exitDy=0;entryX=0.5;entryY=0;entryDx=0;entryDy=0;" edge="1" parent="1" source="0zhq0VFXp20kZqqoGH3C-130" target="0zhq0VFXp20kZqqoGH3C-132">
          <mxGeometry relative="1" as="geometry" />
        </mxCell>
        <mxCell id="0zhq0VFXp20kZqqoGH3C-130" value="Masukkan Nama Mata Kuliah&amp;nbsp;" style="shape=parallelogram;perimeter=parallelogramPerimeter;whiteSpace=wrap;html=1;fixedSize=1;" vertex="1" parent="1">
          <mxGeometry x="2591.1200000000003" y="783" width="160" height="70" as="geometry" />
        </mxCell>
        <mxCell id="0zhq0VFXp20kZqqoGH3C-131" style="edgeStyle=orthogonalEdgeStyle;rounded=0;orthogonalLoop=1;jettySize=auto;html=1;exitX=0.5;exitY=1;exitDx=0;exitDy=0;entryX=0.5;entryY=0;entryDx=0;entryDy=0;" edge="1" parent="1" source="0zhq0VFXp20kZqqoGH3C-132" target="0zhq0VFXp20kZqqoGH3C-134">
          <mxGeometry relative="1" as="geometry" />
        </mxCell>
        <mxCell id="0zhq0VFXp20kZqqoGH3C-132" value="Melakukan pengurutan Total Nilai dari input Nama Mata Kuliah&amp;nbsp;" style="rounded=0;whiteSpace=wrap;html=1;" vertex="1" parent="1">
          <mxGeometry x="2536.12" y="889.13" width="270" height="78.75" as="geometry" />
        </mxCell>
        <mxCell id="0zhq0VFXp20kZqqoGH3C-133" style="edgeStyle=orthogonalEdgeStyle;rounded=0;orthogonalLoop=1;jettySize=auto;html=1;exitX=0.5;exitY=1;exitDx=0;exitDy=0;entryX=0;entryY=0.5;entryDx=0;entryDy=0;" edge="1" parent="1" source="0zhq0VFXp20kZqqoGH3C-134" target="0zhq0VFXp20kZqqoGH3C-4">
          <mxGeometry relative="1" as="geometry">
            <mxPoint x="-485" y="600" as="targetPoint" />
            <Array as="points">
              <mxPoint x="2672" y="2150" />
              <mxPoint x="-800" y="2150" />
              <mxPoint x="-800" y="440" />
            </Array>
          </mxGeometry>
        </mxCell>
        <mxCell id="0zhq0VFXp20kZqqoGH3C-134" value="Melakukan penampilan data yang sudah di urutkan" style="rounded=0;whiteSpace=wrap;html=1;" vertex="1" parent="1">
          <mxGeometry x="2537.37" y="1004.5" width="270" height="78.75" as="geometry" />
        </mxCell>
        <mxCell id="0zhq0VFXp20kZqqoGH3C-135" style="edgeStyle=orthogonalEdgeStyle;rounded=0;orthogonalLoop=1;jettySize=auto;html=1;exitX=0.5;exitY=1;exitDx=0;exitDy=0;entryX=0.5;entryY=0;entryDx=0;entryDy=0;" edge="1" parent="1" source="0zhq0VFXp20kZqqoGH3C-136" target="0zhq0VFXp20kZqqoGH3C-138">
          <mxGeometry relative="1" as="geometry" />
        </mxCell>
        <mxCell id="0zhq0VFXp20kZqqoGH3C-136" value="Memanggil function transkripNilai" style="rounded=0;whiteSpace=wrap;html=1;" vertex="1" parent="1">
          <mxGeometry x="2343" y="671.38" width="120" height="60" as="geometry" />
        </mxCell>
        <mxCell id="0zhq0VFXp20kZqqoGH3C-137" style="edgeStyle=orthogonalEdgeStyle;rounded=0;orthogonalLoop=1;jettySize=auto;html=1;exitX=0.5;exitY=1;exitDx=0;exitDy=0;entryX=0.5;entryY=0;entryDx=0;entryDy=0;" edge="1" parent="1" source="0zhq0VFXp20kZqqoGH3C-138" target="0zhq0VFXp20kZqqoGH3C-140">
          <mxGeometry relative="1" as="geometry" />
        </mxCell>
        <mxCell id="0zhq0VFXp20kZqqoGH3C-138" value="Masukkan NIM Mahasiswa" style="shape=parallelogram;perimeter=parallelogramPerimeter;whiteSpace=wrap;html=1;fixedSize=1;" vertex="1" parent="1">
          <mxGeometry x="2322.75" y="764.88" width="160" height="70" as="geometry" />
        </mxCell>
        <mxCell id="0zhq0VFXp20kZqqoGH3C-139" style="edgeStyle=orthogonalEdgeStyle;rounded=0;orthogonalLoop=1;jettySize=auto;html=1;exitX=0.5;exitY=1;exitDx=0;exitDy=0;entryX=0.5;entryY=0;entryDx=0;entryDy=0;" edge="1" parent="1" source="0zhq0VFXp20kZqqoGH3C-140" target="0zhq0VFXp20kZqqoGH3C-144">
          <mxGeometry relative="1" as="geometry" />
        </mxCell>
        <mxCell id="0zhq0VFXp20kZqqoGH3C-140" value="Memanggil function insertionSort" style="rounded=0;whiteSpace=wrap;html=1;" vertex="1" parent="1">
          <mxGeometry x="2343" y="857.88" width="120" height="60" as="geometry" />
        </mxCell>
        <mxCell id="0zhq0VFXp20kZqqoGH3C-141" style="edgeStyle=orthogonalEdgeStyle;rounded=0;orthogonalLoop=1;jettySize=auto;html=1;exitX=0.5;exitY=1;exitDx=0;exitDy=0;entryX=0.5;entryY=0;entryDx=0;entryDy=0;" edge="1" parent="1" source="0zhq0VFXp20kZqqoGH3C-142" target="0zhq0VFXp20kZqqoGH3C-149">
          <mxGeometry relative="1" as="geometry" />
        </mxCell>
        <mxCell id="0zhq0VFXp20kZqqoGH3C-142" value="index = binarySearch(NIM)" style="shape=sequare;perimeter=hexagonPerimeter2;whiteSpace=wrap;html=1;fixedSize=1;" vertex="1" parent="1">
          <mxGeometry x="2343" y="1031" width="122" height="66" as="geometry" />
        </mxCell>
        <mxCell id="0zhq0VFXp20kZqqoGH3C-143" style="edgeStyle=orthogonalEdgeStyle;rounded=0;orthogonalLoop=1;jettySize=auto;html=1;exitX=0.5;exitY=1;exitDx=0;exitDy=0;entryX=0.5;entryY=0;entryDx=0;entryDy=0;" edge="1" parent="1" source="0zhq0VFXp20kZqqoGH3C-144" target="0zhq0VFXp20kZqqoGH3C-142">
          <mxGeometry relative="1" as="geometry" />
        </mxCell>
        <mxCell id="0zhq0VFXp20kZqqoGH3C-144" value="binarySearch(NIM)" style="rounded=0;whiteSpace=wrap;html=1;" vertex="1" parent="1">
          <mxGeometry x="2343" y="945.13" width="120" height="60" as="geometry" />
        </mxCell>
        <mxCell id="0zhq0VFXp20kZqqoGH3C-145" style="edgeStyle=orthogonalEdgeStyle;rounded=0;orthogonalLoop=1;jettySize=auto;html=1;exitX=0.5;exitY=1;exitDx=0;exitDy=0;entryX=0.5;entryY=0;entryDx=0;entryDy=0;" edge="1" parent="1" source="0zhq0VFXp20kZqqoGH3C-149" target="0zhq0VFXp20kZqqoGH3C-151">
          <mxGeometry relative="1" as="geometry" />
        </mxCell>
        <mxCell id="0zhq0VFXp20kZqqoGH3C-146" value="Yes" style="edgeLabel;html=1;align=center;verticalAlign=middle;resizable=0;points=[];" vertex="1" connectable="0" parent="0zhq0VFXp20kZqqoGH3C-145">
          <mxGeometry x="-0.2894" y="-1" relative="1" as="geometry">
            <mxPoint as="offset" />
          </mxGeometry>
        </mxCell>
        <mxCell id="0zhq0VFXp20kZqqoGH3C-147" style="edgeStyle=orthogonalEdgeStyle;rounded=0;orthogonalLoop=1;jettySize=auto;html=1;exitX=0;exitY=0.5;exitDx=0;exitDy=0;entryX=0;entryY=0.5;entryDx=0;entryDy=0;" edge="1" parent="1" source="0zhq0VFXp20kZqqoGH3C-149" target="0zhq0VFXp20kZqqoGH3C-153">
          <mxGeometry relative="1" as="geometry">
            <Array as="points">
              <mxPoint x="2215" y="1178" />
              <mxPoint x="2215" y="1376" />
            </Array>
          </mxGeometry>
        </mxCell>
        <mxCell id="0zhq0VFXp20kZqqoGH3C-148" value="No" style="edgeLabel;html=1;align=center;verticalAlign=middle;resizable=0;points=[];" vertex="1" connectable="0" parent="0zhq0VFXp20kZqqoGH3C-147">
          <mxGeometry x="-0.737" y="1" relative="1" as="geometry">
            <mxPoint as="offset" />
          </mxGeometry>
        </mxCell>
        <mxCell id="0zhq0VFXp20kZqqoGH3C-149" value="index != -1" style="rhombus;whiteSpace=wrap;html=1;" vertex="1" parent="1">
          <mxGeometry x="2349" y="1128.38" width="107.5" height="100" as="geometry" />
        </mxCell>
        <mxCell id="0zhq0VFXp20kZqqoGH3C-150" style="edgeStyle=orthogonalEdgeStyle;rounded=0;orthogonalLoop=1;jettySize=auto;html=1;exitX=1;exitY=0.5;exitDx=0;exitDy=0;entryX=0;entryY=0.5;entryDx=0;entryDy=0;" edge="1" parent="1" source="0zhq0VFXp20kZqqoGH3C-151" target="0zhq0VFXp20kZqqoGH3C-4">
          <mxGeometry relative="1" as="geometry">
            <Array as="points">
              <mxPoint x="2620" y="1290" />
              <mxPoint x="2620" y="2150" />
              <mxPoint x="-800" y="2150" />
              <mxPoint x="-800" y="440" />
            </Array>
          </mxGeometry>
        </mxCell>
        <mxCell id="0zhq0VFXp20kZqqoGH3C-151" value="Menampilkan data mahasiswa (Nama, NIM, Semester, Jurusan, Total SKS) dan menampilkan data mata kuliah (Nama Mata Kuliah, UTS, UAS, Quiz, Total, Grade)" style="rounded=0;whiteSpace=wrap;html=1;" vertex="1" parent="1">
          <mxGeometry x="2237.75" y="1259.88" width="330" height="60" as="geometry" />
        </mxCell>
        <mxCell id="0zhq0VFXp20kZqqoGH3C-152" style="edgeStyle=orthogonalEdgeStyle;rounded=0;orthogonalLoop=1;jettySize=auto;html=1;exitX=0.5;exitY=1;exitDx=0;exitDy=0;entryX=0;entryY=0.5;entryDx=0;entryDy=0;" edge="1" parent="1" source="0zhq0VFXp20kZqqoGH3C-153" target="0zhq0VFXp20kZqqoGH3C-4">
          <mxGeometry relative="1" as="geometry">
            <mxPoint x="1868" y="1266.38" as="sourcePoint" />
            <mxPoint x="-410" y="440" as="targetPoint" />
            <Array as="points">
              <mxPoint x="2403" y="2150" />
              <mxPoint x="-800" y="2150" />
              <mxPoint x="-800" y="440" />
            </Array>
          </mxGeometry>
        </mxCell>
        <mxCell id="0zhq0VFXp20kZqqoGH3C-153" value="Print (&quot;Data tidak ditemukan!&quot;)" style="rounded=0;whiteSpace=wrap;html=1;" vertex="1" parent="1">
          <mxGeometry x="2343" y="1346.38" width="120" height="60" as="geometry" />
        </mxCell>
        <mxCell id="0zhq0VFXp20kZqqoGH3C-154" style="edgeStyle=orthogonalEdgeStyle;rounded=0;orthogonalLoop=1;jettySize=auto;html=1;exitX=0.5;exitY=1;exitDx=0;exitDy=0;entryX=0.5;entryY=0;entryDx=0;entryDy=0;" edge="1" parent="1" source="0zhq0VFXp20kZqqoGH3C-155" target="0zhq0VFXp20kZqqoGH3C-157">
          <mxGeometry relative="1" as="geometry" />
        </mxCell>
        <mxCell id="0zhq0VFXp20kZqqoGH3C-155" value="Memanggil function hapusData" style="rounded=0;whiteSpace=wrap;html=1;" vertex="1" parent="1">
          <mxGeometry x="650" y="670" width="120" height="60" as="geometry" />
        </mxCell>
        <mxCell id="0zhq0VFXp20kZqqoGH3C-156" style="edgeStyle=orthogonalEdgeStyle;rounded=0;orthogonalLoop=1;jettySize=auto;html=1;exitX=0.5;exitY=1;exitDx=0;exitDy=0;entryX=0.5;entryY=0;entryDx=0;entryDy=0;" edge="1" parent="1" source="0zhq0VFXp20kZqqoGH3C-157" target="0zhq0VFXp20kZqqoGH3C-162">
          <mxGeometry relative="1" as="geometry" />
        </mxCell>
        <mxCell id="0zhq0VFXp20kZqqoGH3C-157" value="Memilih Menu" style="shape=parallelogram;perimeter=parallelogramPerimeter;whiteSpace=wrap;html=1;fixedSize=1;" vertex="1" parent="1">
          <mxGeometry x="650" y="766" width="122.5" height="60" as="geometry" />
        </mxCell>
        <mxCell id="0zhq0VFXp20kZqqoGH3C-158" style="edgeStyle=orthogonalEdgeStyle;rounded=0;orthogonalLoop=1;jettySize=auto;html=1;exitX=1;exitY=0.5;exitDx=0;exitDy=0;entryX=0;entryY=0.5;entryDx=0;entryDy=0;" edge="1" parent="1" source="0zhq0VFXp20kZqqoGH3C-162" target="0zhq0VFXp20kZqqoGH3C-164">
          <mxGeometry relative="1" as="geometry" />
        </mxCell>
        <mxCell id="0zhq0VFXp20kZqqoGH3C-159" value="Yes" style="edgeLabel;html=1;align=center;verticalAlign=middle;resizable=0;points=[];" vertex="1" connectable="0" parent="0zhq0VFXp20kZqqoGH3C-158">
          <mxGeometry x="-0.2069" relative="1" as="geometry">
            <mxPoint as="offset" />
          </mxGeometry>
        </mxCell>
        <mxCell id="0zhq0VFXp20kZqqoGH3C-160" style="edgeStyle=orthogonalEdgeStyle;rounded=0;orthogonalLoop=1;jettySize=auto;html=1;exitX=0.5;exitY=1;exitDx=0;exitDy=0;entryX=0.5;entryY=0;entryDx=0;entryDy=0;" edge="1" parent="1" source="0zhq0VFXp20kZqqoGH3C-162" target="0zhq0VFXp20kZqqoGH3C-171">
          <mxGeometry relative="1" as="geometry" />
        </mxCell>
        <mxCell id="0zhq0VFXp20kZqqoGH3C-161" value="No" style="edgeLabel;html=1;align=center;verticalAlign=middle;resizable=0;points=[];" vertex="1" connectable="0" parent="0zhq0VFXp20kZqqoGH3C-160">
          <mxGeometry x="-0.3751" relative="1" as="geometry">
            <mxPoint as="offset" />
          </mxGeometry>
        </mxCell>
        <mxCell id="0zhq0VFXp20kZqqoGH3C-162" value="&lt;span style=&quot;background-color: initial;&quot;&gt;Hapus Data&lt;/span&gt;&lt;div&gt;Mahasiswa ?&lt;/div&gt;" style="rhombus;whiteSpace=wrap;html=1;" vertex="1" parent="1">
          <mxGeometry x="645.5599999999997" y="855.5" width="130" height="120" as="geometry" />
        </mxCell>
        <mxCell id="0zhq0VFXp20kZqqoGH3C-163" style="edgeStyle=orthogonalEdgeStyle;rounded=0;orthogonalLoop=1;jettySize=auto;html=1;exitX=0.5;exitY=0;exitDx=0;exitDy=0;entryX=0.5;entryY=1;entryDx=0;entryDy=0;" edge="1" parent="1" source="0zhq0VFXp20kZqqoGH3C-164" target="0zhq0VFXp20kZqqoGH3C-187">
          <mxGeometry relative="1" as="geometry" />
        </mxCell>
        <mxCell id="0zhq0VFXp20kZqqoGH3C-164" value="Masukkan NIM&lt;div&gt;Mahasiswa&lt;/div&gt;" style="shape=parallelogram;perimeter=parallelogramPerimeter;whiteSpace=wrap;html=1;fixedSize=1;" vertex="1" parent="1">
          <mxGeometry x="820.0000000000002" y="881.0000000000001" width="160" height="70" as="geometry" />
        </mxCell>
        <mxCell id="0zhq0VFXp20kZqqoGH3C-165" style="edgeStyle=orthogonalEdgeStyle;rounded=0;orthogonalLoop=1;jettySize=auto;html=1;exitX=0.5;exitY=0;exitDx=0;exitDy=0;entryX=0;entryY=0.5;entryDx=0;entryDy=0;" edge="1" parent="1" source="0zhq0VFXp20kZqqoGH3C-169" target="0zhq0VFXp20kZqqoGH3C-189">
          <mxGeometry relative="1" as="geometry" />
        </mxCell>
        <mxCell id="0zhq0VFXp20kZqqoGH3C-166" value="Yes" style="edgeLabel;html=1;align=center;verticalAlign=middle;resizable=0;points=[];" vertex="1" connectable="0" parent="0zhq0VFXp20kZqqoGH3C-165">
          <mxGeometry x="0.1451" y="-1" relative="1" as="geometry">
            <mxPoint as="offset" />
          </mxGeometry>
        </mxCell>
        <mxCell id="0zhq0VFXp20kZqqoGH3C-167" style="edgeStyle=orthogonalEdgeStyle;rounded=0;orthogonalLoop=1;jettySize=auto;html=1;exitX=1;exitY=0.5;exitDx=0;exitDy=0;entryX=0;entryY=0.5;entryDx=0;entryDy=0;" edge="1" parent="1">
          <mxGeometry relative="1" as="geometry">
            <mxPoint x="5" y="439" as="targetPoint" />
            <mxPoint x="967" y="712.8800000000001" as="sourcePoint" />
            <Array as="points">
              <mxPoint x="1070" y="713" />
              <mxPoint x="1070" y="1810" />
              <mxPoint x="-800" y="1810" />
              <mxPoint x="-800" y="439" />
            </Array>
          </mxGeometry>
        </mxCell>
        <mxCell id="0zhq0VFXp20kZqqoGH3C-168" value="No" style="edgeLabel;html=1;align=center;verticalAlign=middle;resizable=0;points=[];" vertex="1" connectable="0" parent="0zhq0VFXp20kZqqoGH3C-167">
          <mxGeometry x="-0.98" relative="1" as="geometry">
            <mxPoint as="offset" />
          </mxGeometry>
        </mxCell>
        <mxCell id="0zhq0VFXp20kZqqoGH3C-169" value="Apakah NIM Sesuai?" style="rhombus;whiteSpace=wrap;html=1;" vertex="1" parent="1">
          <mxGeometry x="837.0000000000002" y="653.8800000000001" width="130" height="120" as="geometry" />
        </mxCell>
        <mxCell id="0zhq0VFXp20kZqqoGH3C-170" style="edgeStyle=orthogonalEdgeStyle;rounded=0;orthogonalLoop=1;jettySize=auto;html=1;exitX=0.5;exitY=1;exitDx=0;exitDy=0;entryX=0.5;entryY=0;entryDx=0;entryDy=0;" edge="1" parent="1" source="0zhq0VFXp20kZqqoGH3C-171" target="0zhq0VFXp20kZqqoGH3C-173">
          <mxGeometry relative="1" as="geometry" />
        </mxCell>
        <mxCell id="0zhq0VFXp20kZqqoGH3C-171" value="Masukkan NIM&lt;div&gt;Mahasiswa&lt;/div&gt;" style="shape=parallelogram;perimeter=parallelogramPerimeter;whiteSpace=wrap;html=1;fixedSize=1;" vertex="1" parent="1">
          <mxGeometry x="630.8800000000003" y="1005.13" width="160" height="70" as="geometry" />
        </mxCell>
        <mxCell id="0zhq0VFXp20kZqqoGH3C-172" style="edgeStyle=orthogonalEdgeStyle;rounded=0;orthogonalLoop=1;jettySize=auto;html=1;exitX=0.5;exitY=1;exitDx=0;exitDy=0;entryX=0.5;entryY=0;entryDx=0;entryDy=0;" edge="1" parent="1" source="0zhq0VFXp20kZqqoGH3C-173" target="0zhq0VFXp20kZqqoGH3C-191">
          <mxGeometry relative="1" as="geometry" />
        </mxCell>
        <mxCell id="0zhq0VFXp20kZqqoGH3C-173" value="Masukkan Nama Mata Kuliah&amp;nbsp;" style="shape=parallelogram;perimeter=parallelogramPerimeter;whiteSpace=wrap;html=1;fixedSize=1;" vertex="1" parent="1">
          <mxGeometry x="630.6300000000003" y="1111.63" width="160" height="70" as="geometry" />
        </mxCell>
        <mxCell id="0zhq0VFXp20kZqqoGH3C-174" style="edgeStyle=orthogonalEdgeStyle;rounded=0;orthogonalLoop=1;jettySize=auto;html=1;exitX=1;exitY=0.5;exitDx=0;exitDy=0;entryX=0;entryY=0.5;entryDx=0;entryDy=0;" edge="1" parent="1" source="0zhq0VFXp20kZqqoGH3C-178" target="0zhq0VFXp20kZqqoGH3C-193">
          <mxGeometry relative="1" as="geometry" />
        </mxCell>
        <mxCell id="0zhq0VFXp20kZqqoGH3C-175" value="Yes" style="edgeLabel;html=1;align=center;verticalAlign=middle;resizable=0;points=[];" vertex="1" connectable="0" parent="0zhq0VFXp20kZqqoGH3C-174">
          <mxGeometry x="-0.3141" y="1" relative="1" as="geometry">
            <mxPoint as="offset" />
          </mxGeometry>
        </mxCell>
        <mxCell id="0zhq0VFXp20kZqqoGH3C-176" style="edgeStyle=orthogonalEdgeStyle;rounded=0;orthogonalLoop=1;jettySize=auto;html=1;exitX=0.5;exitY=1;exitDx=0;exitDy=0;entryX=0;entryY=0.5;entryDx=0;entryDy=0;" edge="1" parent="1" source="0zhq0VFXp20kZqqoGH3C-178" target="0zhq0VFXp20kZqqoGH3C-4">
          <mxGeometry relative="1" as="geometry">
            <Array as="points">
              <mxPoint x="710" y="1750" />
              <mxPoint x="-800" y="1750" />
              <mxPoint x="-800" y="440" />
            </Array>
          </mxGeometry>
        </mxCell>
        <mxCell id="0zhq0VFXp20kZqqoGH3C-177" value="No" style="edgeLabel;html=1;align=center;verticalAlign=middle;resizable=0;points=[];" vertex="1" connectable="0" parent="0zhq0VFXp20kZqqoGH3C-176">
          <mxGeometry x="-0.9826" y="1" relative="1" as="geometry">
            <mxPoint y="-1" as="offset" />
          </mxGeometry>
        </mxCell>
        <mxCell id="0zhq0VFXp20kZqqoGH3C-178" value="Apakah NIM Sesuai?" style="rhombus;whiteSpace=wrap;html=1;" vertex="1" parent="1">
          <mxGeometry x="644.8800000000003" y="1320" width="130" height="120" as="geometry" />
        </mxCell>
        <mxCell id="0zhq0VFXp20kZqqoGH3C-179" style="edgeStyle=orthogonalEdgeStyle;rounded=0;orthogonalLoop=1;jettySize=auto;html=1;exitX=0.5;exitY=0;exitDx=0;exitDy=0;entryX=0.5;entryY=1;entryDx=0;entryDy=0;" edge="1" parent="1" source="0zhq0VFXp20kZqqoGH3C-183" target="0zhq0VFXp20kZqqoGH3C-185">
          <mxGeometry relative="1" as="geometry" />
        </mxCell>
        <mxCell id="0zhq0VFXp20kZqqoGH3C-180" value="Yes" style="edgeLabel;html=1;align=center;verticalAlign=middle;resizable=0;points=[];" vertex="1" connectable="0" parent="0zhq0VFXp20kZqqoGH3C-179">
          <mxGeometry x="-0.2066" y="-1" relative="1" as="geometry">
            <mxPoint as="offset" />
          </mxGeometry>
        </mxCell>
        <mxCell id="0zhq0VFXp20kZqqoGH3C-181" style="edgeStyle=orthogonalEdgeStyle;rounded=0;orthogonalLoop=1;jettySize=auto;html=1;exitX=1;exitY=0.5;exitDx=0;exitDy=0;entryX=0;entryY=0.5;entryDx=0;entryDy=0;" edge="1" parent="1" source="0zhq0VFXp20kZqqoGH3C-183" target="0zhq0VFXp20kZqqoGH3C-4">
          <mxGeometry relative="1" as="geometry">
            <Array as="points">
              <mxPoint x="1030" y="1260" />
              <mxPoint x="1030" y="1770" />
              <mxPoint x="-800" y="1770" />
              <mxPoint x="-800" y="440" />
            </Array>
          </mxGeometry>
        </mxCell>
        <mxCell id="0zhq0VFXp20kZqqoGH3C-182" value="No" style="edgeLabel;html=1;align=center;verticalAlign=middle;resizable=0;points=[];" vertex="1" connectable="0" parent="0zhq0VFXp20kZqqoGH3C-181">
          <mxGeometry x="-0.9894" relative="1" as="geometry">
            <mxPoint as="offset" />
          </mxGeometry>
        </mxCell>
        <mxCell id="0zhq0VFXp20kZqqoGH3C-183" value="Apakah Nama Mata Kuliah Sesuai?" style="rhombus;whiteSpace=wrap;html=1;" vertex="1" parent="1">
          <mxGeometry x="857" y="1200" width="130" height="120" as="geometry" />
        </mxCell>
        <mxCell id="0zhq0VFXp20kZqqoGH3C-184" style="edgeStyle=orthogonalEdgeStyle;rounded=0;orthogonalLoop=1;jettySize=auto;html=1;exitX=1;exitY=0.5;exitDx=0;exitDy=0;entryX=0;entryY=0.5;entryDx=0;entryDy=0;" edge="1" parent="1" source="0zhq0VFXp20kZqqoGH3C-185" target="0zhq0VFXp20kZqqoGH3C-4">
          <mxGeometry relative="1" as="geometry">
            <Array as="points">
              <mxPoint x="1050" y="1125" />
              <mxPoint x="1050" y="1790" />
              <mxPoint x="-800" y="1790" />
              <mxPoint x="-800" y="440" />
            </Array>
          </mxGeometry>
        </mxCell>
        <mxCell id="0zhq0VFXp20kZqqoGH3C-185" value="Hapus Data Mata Kuliah" style="rounded=0;whiteSpace=wrap;html=1;" vertex="1" parent="1">
          <mxGeometry x="852" y="1095" width="140" height="60" as="geometry" />
        </mxCell>
        <mxCell id="0zhq0VFXp20kZqqoGH3C-186" style="edgeStyle=orthogonalEdgeStyle;rounded=0;orthogonalLoop=1;jettySize=auto;html=1;exitX=0.5;exitY=0;exitDx=0;exitDy=0;entryX=0.5;entryY=1;entryDx=0;entryDy=0;" edge="1" parent="1" source="0zhq0VFXp20kZqqoGH3C-187" target="0zhq0VFXp20kZqqoGH3C-169">
          <mxGeometry relative="1" as="geometry" />
        </mxCell>
        <mxCell id="0zhq0VFXp20kZqqoGH3C-187" value="Melakukan Perulangan Data Mahasiswa" style="rounded=0;whiteSpace=wrap;html=1;" vertex="1" parent="1">
          <mxGeometry x="817" y="799" width="170" height="60" as="geometry" />
        </mxCell>
        <mxCell id="0zhq0VFXp20kZqqoGH3C-188" style="edgeStyle=orthogonalEdgeStyle;rounded=0;orthogonalLoop=1;jettySize=auto;html=1;exitX=0.5;exitY=1;exitDx=0;exitDy=0;entryX=0;entryY=0.5;entryDx=0;entryDy=0;" edge="1" parent="1" target="0zhq0VFXp20kZqqoGH3C-4">
          <mxGeometry relative="1" as="geometry">
            <mxPoint x="1119" y="624" as="sourcePoint" />
            <mxPoint x="15" y="399.9999999999999" as="targetPoint" />
            <Array as="points">
              <mxPoint x="1119" y="1830" />
              <mxPoint x="-800" y="1830" />
              <mxPoint x="-800" y="440" />
            </Array>
          </mxGeometry>
        </mxCell>
        <mxCell id="0zhq0VFXp20kZqqoGH3C-189" value="Melakukan Penghapusan Data Mahasiswa" style="rounded=0;whiteSpace=wrap;html=1;" vertex="1" parent="1">
          <mxGeometry x="1024" y="604" width="170" height="60" as="geometry" />
        </mxCell>
        <mxCell id="0zhq0VFXp20kZqqoGH3C-190" style="edgeStyle=orthogonalEdgeStyle;rounded=0;orthogonalLoop=1;jettySize=auto;html=1;exitX=0.5;exitY=1;exitDx=0;exitDy=0;entryX=0.5;entryY=0;entryDx=0;entryDy=0;" edge="1" parent="1" source="0zhq0VFXp20kZqqoGH3C-191" target="0zhq0VFXp20kZqqoGH3C-178">
          <mxGeometry relative="1" as="geometry" />
        </mxCell>
        <mxCell id="0zhq0VFXp20kZqqoGH3C-191" value="Melakukan Perulangan Data Mahasiswa" style="rounded=0;whiteSpace=wrap;html=1;" vertex="1" parent="1">
          <mxGeometry x="625" y="1228.38" width="170" height="60" as="geometry" />
        </mxCell>
        <mxCell id="0zhq0VFXp20kZqqoGH3C-192" style="edgeStyle=orthogonalEdgeStyle;rounded=0;orthogonalLoop=1;jettySize=auto;html=1;exitX=0.5;exitY=0;exitDx=0;exitDy=0;entryX=0.5;entryY=1;entryDx=0;entryDy=0;" edge="1" parent="1" source="0zhq0VFXp20kZqqoGH3C-193" target="0zhq0VFXp20kZqqoGH3C-183">
          <mxGeometry relative="1" as="geometry" />
        </mxCell>
        <mxCell id="0zhq0VFXp20kZqqoGH3C-193" value="Melakukan Perulangan Data Mata Kuliah" style="rounded=0;whiteSpace=wrap;html=1;" vertex="1" parent="1">
          <mxGeometry x="837" y="1350" width="170" height="60" as="geometry" />
        </mxCell>
        <mxCell id="0zhq0VFXp20kZqqoGH3C-194" style="edgeStyle=orthogonalEdgeStyle;rounded=0;orthogonalLoop=1;jettySize=auto;html=1;exitX=0.5;exitY=1;exitDx=0;exitDy=0;entryX=0.5;entryY=0;entryDx=0;entryDy=0;" edge="1" parent="1" source="0zhq0VFXp20kZqqoGH3C-195" target="0zhq0VFXp20kZqqoGH3C-197">
          <mxGeometry relative="1" as="geometry" />
        </mxCell>
        <mxCell id="0zhq0VFXp20kZqqoGH3C-195" value="Memanggil function updateData" style="rounded=0;whiteSpace=wrap;html=1;" vertex="1" parent="1">
          <mxGeometry x="1255.75" y="671.38" width="120" height="60" as="geometry" />
        </mxCell>
        <mxCell id="0zhq0VFXp20kZqqoGH3C-196" style="edgeStyle=orthogonalEdgeStyle;rounded=0;orthogonalLoop=1;jettySize=auto;html=1;exitX=0.5;exitY=1;exitDx=0;exitDy=0;entryX=0.5;entryY=0;entryDx=0;entryDy=0;" edge="1" parent="1" source="0zhq0VFXp20kZqqoGH3C-197" target="0zhq0VFXp20kZqqoGH3C-201">
          <mxGeometry relative="1" as="geometry" />
        </mxCell>
        <mxCell id="0zhq0VFXp20kZqqoGH3C-197" value="Memilih Menu" style="shape=parallelogram;perimeter=parallelogramPerimeter;whiteSpace=wrap;html=1;fixedSize=1;" vertex="1" parent="1">
          <mxGeometry x="1254.5" y="767.38" width="122.5" height="60" as="geometry" />
        </mxCell>
        <mxCell id="0zhq0VFXp20kZqqoGH3C-198" style="edgeStyle=orthogonalEdgeStyle;rounded=0;orthogonalLoop=1;jettySize=auto;html=1;exitX=1;exitY=0.5;exitDx=0;exitDy=0;entryX=0;entryY=0.5;entryDx=0;entryDy=0;" edge="1" parent="1" source="0zhq0VFXp20kZqqoGH3C-201" target="0zhq0VFXp20kZqqoGH3C-246">
          <mxGeometry relative="1" as="geometry">
            <Array as="points">
              <mxPoint x="1420" y="920" />
              <mxPoint x="1420" y="660" />
            </Array>
          </mxGeometry>
        </mxCell>
        <mxCell id="0zhq0VFXp20kZqqoGH3C-199" style="edgeStyle=orthogonalEdgeStyle;rounded=0;orthogonalLoop=1;jettySize=auto;html=1;exitX=0.5;exitY=1;exitDx=0;exitDy=0;entryX=0.5;entryY=0;entryDx=0;entryDy=0;" edge="1" parent="1" source="0zhq0VFXp20kZqqoGH3C-201" target="0zhq0VFXp20kZqqoGH3C-252">
          <mxGeometry relative="1" as="geometry" />
        </mxCell>
        <mxCell id="0zhq0VFXp20kZqqoGH3C-200" value="No" style="edgeLabel;html=1;align=center;verticalAlign=middle;resizable=0;points=[];" vertex="1" connectable="0" parent="0zhq0VFXp20kZqqoGH3C-199">
          <mxGeometry x="-0.2286" relative="1" as="geometry">
            <mxPoint as="offset" />
          </mxGeometry>
        </mxCell>
        <mxCell id="0zhq0VFXp20kZqqoGH3C-201" value="Update Data Mahasiswa?&amp;nbsp;" style="rhombus;whiteSpace=wrap;html=1;" vertex="1" parent="1">
          <mxGeometry x="1250.75" y="860" width="130" height="120" as="geometry" />
        </mxCell>
        <mxCell id="0zhq0VFXp20kZqqoGH3C-202" style="edgeStyle=orthogonalEdgeStyle;rounded=0;orthogonalLoop=1;jettySize=auto;html=1;exitX=1;exitY=0.5;exitDx=0;exitDy=0;entryX=0;entryY=0.5;entryDx=0;entryDy=0;" edge="1" parent="1" source="0zhq0VFXp20kZqqoGH3C-206" target="0zhq0VFXp20kZqqoGH3C-220">
          <mxGeometry relative="1" as="geometry" />
        </mxCell>
        <mxCell id="0zhq0VFXp20kZqqoGH3C-203" value="Yes" style="edgeLabel;html=1;align=center;verticalAlign=middle;resizable=0;points=[];" vertex="1" connectable="0" parent="0zhq0VFXp20kZqqoGH3C-202">
          <mxGeometry x="-0.397" y="-1" relative="1" as="geometry">
            <mxPoint as="offset" />
          </mxGeometry>
        </mxCell>
        <mxCell id="0zhq0VFXp20kZqqoGH3C-204" style="edgeStyle=orthogonalEdgeStyle;rounded=0;orthogonalLoop=1;jettySize=auto;html=1;exitX=0.5;exitY=1;exitDx=0;exitDy=0;entryX=0.5;entryY=0;entryDx=0;entryDy=0;" edge="1" parent="1" source="0zhq0VFXp20kZqqoGH3C-206" target="0zhq0VFXp20kZqqoGH3C-211">
          <mxGeometry relative="1" as="geometry" />
        </mxCell>
        <mxCell id="0zhq0VFXp20kZqqoGH3C-205" value="No" style="edgeLabel;html=1;align=center;verticalAlign=middle;resizable=0;points=[];" vertex="1" connectable="0" parent="0zhq0VFXp20kZqqoGH3C-204">
          <mxGeometry x="-0.3129" y="1" relative="1" as="geometry">
            <mxPoint as="offset" />
          </mxGeometry>
        </mxCell>
        <mxCell id="0zhq0VFXp20kZqqoGH3C-206" value="Nama?" style="rhombus;whiteSpace=wrap;html=1;" vertex="1" parent="1">
          <mxGeometry x="1461" y="784.38" width="130" height="120" as="geometry" />
        </mxCell>
        <mxCell id="0zhq0VFXp20kZqqoGH3C-207" style="edgeStyle=orthogonalEdgeStyle;rounded=0;orthogonalLoop=1;jettySize=auto;html=1;exitX=0.5;exitY=1;exitDx=0;exitDy=0;entryX=0.5;entryY=0;entryDx=0;entryDy=0;" edge="1" parent="1" source="0zhq0VFXp20kZqqoGH3C-211" target="0zhq0VFXp20kZqqoGH3C-216">
          <mxGeometry relative="1" as="geometry" />
        </mxCell>
        <mxCell id="0zhq0VFXp20kZqqoGH3C-208" value="No" style="edgeLabel;html=1;align=center;verticalAlign=middle;resizable=0;points=[];" vertex="1" connectable="0" parent="0zhq0VFXp20kZqqoGH3C-207">
          <mxGeometry x="-0.133" relative="1" as="geometry">
            <mxPoint as="offset" />
          </mxGeometry>
        </mxCell>
        <mxCell id="0zhq0VFXp20kZqqoGH3C-209" style="edgeStyle=orthogonalEdgeStyle;rounded=0;orthogonalLoop=1;jettySize=auto;html=1;exitX=1;exitY=0.5;exitDx=0;exitDy=0;entryX=0;entryY=0.5;entryDx=0;entryDy=0;" edge="1" parent="1" source="0zhq0VFXp20kZqqoGH3C-211" target="0zhq0VFXp20kZqqoGH3C-226">
          <mxGeometry relative="1" as="geometry" />
        </mxCell>
        <mxCell id="0zhq0VFXp20kZqqoGH3C-210" value="Yes" style="edgeLabel;html=1;align=center;verticalAlign=middle;resizable=0;points=[];" vertex="1" connectable="0" parent="0zhq0VFXp20kZqqoGH3C-209">
          <mxGeometry x="-0.2807" y="3" relative="1" as="geometry">
            <mxPoint as="offset" />
          </mxGeometry>
        </mxCell>
        <mxCell id="0zhq0VFXp20kZqqoGH3C-211" value="NIM?" style="rhombus;whiteSpace=wrap;html=1;" vertex="1" parent="1">
          <mxGeometry x="1461" y="937.88" width="130" height="120" as="geometry" />
        </mxCell>
        <mxCell id="0zhq0VFXp20kZqqoGH3C-212" style="edgeStyle=orthogonalEdgeStyle;rounded=0;orthogonalLoop=1;jettySize=auto;html=1;exitX=1;exitY=0.5;exitDx=0;exitDy=0;entryX=0;entryY=0.5;entryDx=0;entryDy=0;" edge="1" parent="1" source="0zhq0VFXp20kZqqoGH3C-216" target="0zhq0VFXp20kZqqoGH3C-232">
          <mxGeometry relative="1" as="geometry" />
        </mxCell>
        <mxCell id="0zhq0VFXp20kZqqoGH3C-213" value="Yes" style="edgeLabel;html=1;align=center;verticalAlign=middle;resizable=0;points=[];" vertex="1" connectable="0" parent="0zhq0VFXp20kZqqoGH3C-212">
          <mxGeometry x="-0.3" y="1" relative="1" as="geometry">
            <mxPoint as="offset" />
          </mxGeometry>
        </mxCell>
        <mxCell id="0zhq0VFXp20kZqqoGH3C-214" style="edgeStyle=orthogonalEdgeStyle;rounded=0;orthogonalLoop=1;jettySize=auto;html=1;exitX=0.5;exitY=1;exitDx=0;exitDy=0;entryX=0;entryY=0.5;entryDx=0;entryDy=0;" edge="1" parent="1" source="0zhq0VFXp20kZqqoGH3C-216" target="0zhq0VFXp20kZqqoGH3C-238">
          <mxGeometry relative="1" as="geometry" />
        </mxCell>
        <mxCell id="0zhq0VFXp20kZqqoGH3C-215" value="No" style="edgeLabel;html=1;align=center;verticalAlign=middle;resizable=0;points=[];" vertex="1" connectable="0" parent="0zhq0VFXp20kZqqoGH3C-214">
          <mxGeometry x="-0.7597" y="1" relative="1" as="geometry">
            <mxPoint as="offset" />
          </mxGeometry>
        </mxCell>
        <mxCell id="0zhq0VFXp20kZqqoGH3C-216" value="Semester" style="rhombus;whiteSpace=wrap;html=1;" vertex="1" parent="1">
          <mxGeometry x="1461" y="1090.88" width="130" height="120" as="geometry" />
        </mxCell>
        <mxCell id="0zhq0VFXp20kZqqoGH3C-217" style="edgeStyle=orthogonalEdgeStyle;rounded=0;orthogonalLoop=1;jettySize=auto;html=1;exitX=1;exitY=0.5;exitDx=0;exitDy=0;entryX=0;entryY=0.5;entryDx=0;entryDy=0;" edge="1" parent="1" source="0zhq0VFXp20kZqqoGH3C-218" target="0zhq0VFXp20kZqqoGH3C-222">
          <mxGeometry relative="1" as="geometry" />
        </mxCell>
        <mxCell id="0zhq0VFXp20kZqqoGH3C-218" value="Masukkan Nama&amp;nbsp; &amp;nbsp;Mahasiswa Baru" style="shape=parallelogram;perimeter=parallelogramPerimeter;whiteSpace=wrap;html=1;fixedSize=1;" vertex="1" parent="1">
          <mxGeometry x="1801" y="809.38" width="160" height="70" as="geometry" />
        </mxCell>
        <mxCell id="0zhq0VFXp20kZqqoGH3C-219" style="edgeStyle=orthogonalEdgeStyle;rounded=0;orthogonalLoop=1;jettySize=auto;html=1;exitX=1;exitY=0.5;exitDx=0;exitDy=0;entryX=0;entryY=0.5;entryDx=0;entryDy=0;" edge="1" parent="1" source="0zhq0VFXp20kZqqoGH3C-220" target="0zhq0VFXp20kZqqoGH3C-218">
          <mxGeometry relative="1" as="geometry" />
        </mxCell>
        <mxCell id="0zhq0VFXp20kZqqoGH3C-220" value="Menampilkan Nama Mahasiswa Lama" style="rounded=0;whiteSpace=wrap;html=1;" vertex="1" parent="1">
          <mxGeometry x="1641" y="814.38" width="120" height="60" as="geometry" />
        </mxCell>
        <mxCell id="0zhq0VFXp20kZqqoGH3C-221" style="edgeStyle=orthogonalEdgeStyle;rounded=0;orthogonalLoop=1;jettySize=auto;html=1;exitX=1;exitY=0.5;exitDx=0;exitDy=0;entryX=0;entryY=0.5;entryDx=0;entryDy=0;" edge="1" parent="1" source="0zhq0VFXp20kZqqoGH3C-222" target="0zhq0VFXp20kZqqoGH3C-4">
          <mxGeometry relative="1" as="geometry">
            <Array as="points">
              <mxPoint x="2170" y="844" />
              <mxPoint x="2170" y="2150" />
              <mxPoint x="-800" y="2150" />
              <mxPoint x="-800" y="440" />
            </Array>
          </mxGeometry>
        </mxCell>
        <mxCell id="0zhq0VFXp20kZqqoGH3C-222" value="Mengganti Nama Mahasiswa di Variabel" style="rounded=0;whiteSpace=wrap;html=1;" vertex="1" parent="1">
          <mxGeometry x="2001" y="814.38" width="120" height="60" as="geometry" />
        </mxCell>
        <mxCell id="0zhq0VFXp20kZqqoGH3C-223" style="edgeStyle=orthogonalEdgeStyle;rounded=0;orthogonalLoop=1;jettySize=auto;html=1;exitX=1;exitY=0.5;exitDx=0;exitDy=0;entryX=0;entryY=0.5;entryDx=0;entryDy=0;" edge="1" parent="1" source="0zhq0VFXp20kZqqoGH3C-224" target="0zhq0VFXp20kZqqoGH3C-228">
          <mxGeometry relative="1" as="geometry" />
        </mxCell>
        <mxCell id="0zhq0VFXp20kZqqoGH3C-224" value="Masukkan Nama&amp;nbsp; &amp;nbsp;Mahasiswa Baru" style="shape=parallelogram;perimeter=parallelogramPerimeter;whiteSpace=wrap;html=1;fixedSize=1;" vertex="1" parent="1">
          <mxGeometry x="1801" y="963" width="160" height="70" as="geometry" />
        </mxCell>
        <mxCell id="0zhq0VFXp20kZqqoGH3C-225" style="edgeStyle=orthogonalEdgeStyle;rounded=0;orthogonalLoop=1;jettySize=auto;html=1;exitX=1;exitY=0.5;exitDx=0;exitDy=0;entryX=0;entryY=0.5;entryDx=0;entryDy=0;" edge="1" parent="1" source="0zhq0VFXp20kZqqoGH3C-226" target="0zhq0VFXp20kZqqoGH3C-224">
          <mxGeometry relative="1" as="geometry" />
        </mxCell>
        <mxCell id="0zhq0VFXp20kZqqoGH3C-226" value="Menampilkan Nama Mahasiswa Lama" style="rounded=0;whiteSpace=wrap;html=1;" vertex="1" parent="1">
          <mxGeometry x="1641" y="968" width="120" height="60" as="geometry" />
        </mxCell>
        <mxCell id="0zhq0VFXp20kZqqoGH3C-227" style="edgeStyle=orthogonalEdgeStyle;rounded=0;orthogonalLoop=1;jettySize=auto;html=1;exitX=1;exitY=0.5;exitDx=0;exitDy=0;entryX=0;entryY=0.5;entryDx=0;entryDy=0;" edge="1" parent="1" source="0zhq0VFXp20kZqqoGH3C-228" target="0zhq0VFXp20kZqqoGH3C-4">
          <mxGeometry relative="1" as="geometry">
            <Array as="points">
              <mxPoint x="2170" y="998" />
              <mxPoint x="2170" y="2150" />
              <mxPoint x="-800" y="2150" />
              <mxPoint x="-800" y="440" />
            </Array>
          </mxGeometry>
        </mxCell>
        <mxCell id="0zhq0VFXp20kZqqoGH3C-228" value="Mengganti Nama Mahasiswa di Variabel" style="rounded=0;whiteSpace=wrap;html=1;" vertex="1" parent="1">
          <mxGeometry x="2001" y="968" width="120" height="60" as="geometry" />
        </mxCell>
        <mxCell id="0zhq0VFXp20kZqqoGH3C-229" style="edgeStyle=orthogonalEdgeStyle;rounded=0;orthogonalLoop=1;jettySize=auto;html=1;exitX=1;exitY=0.5;exitDx=0;exitDy=0;entryX=0;entryY=0.5;entryDx=0;entryDy=0;" edge="1" parent="1" source="0zhq0VFXp20kZqqoGH3C-230" target="0zhq0VFXp20kZqqoGH3C-234">
          <mxGeometry relative="1" as="geometry" />
        </mxCell>
        <mxCell id="0zhq0VFXp20kZqqoGH3C-230" value="Masukkan Nama&amp;nbsp; &amp;nbsp;Mahasiswa Baru" style="shape=parallelogram;perimeter=parallelogramPerimeter;whiteSpace=wrap;html=1;fixedSize=1;" vertex="1" parent="1">
          <mxGeometry x="1801" y="1115.88" width="160" height="70" as="geometry" />
        </mxCell>
        <mxCell id="0zhq0VFXp20kZqqoGH3C-231" style="edgeStyle=orthogonalEdgeStyle;rounded=0;orthogonalLoop=1;jettySize=auto;html=1;exitX=1;exitY=0.5;exitDx=0;exitDy=0;entryX=0;entryY=0.5;entryDx=0;entryDy=0;" edge="1" parent="1" source="0zhq0VFXp20kZqqoGH3C-232" target="0zhq0VFXp20kZqqoGH3C-230">
          <mxGeometry relative="1" as="geometry" />
        </mxCell>
        <mxCell id="0zhq0VFXp20kZqqoGH3C-232" value="Menampilkan Nama Mahasiswa Lama" style="rounded=0;whiteSpace=wrap;html=1;" vertex="1" parent="1">
          <mxGeometry x="1641" y="1120.88" width="120" height="60" as="geometry" />
        </mxCell>
        <mxCell id="0zhq0VFXp20kZqqoGH3C-233" style="edgeStyle=orthogonalEdgeStyle;rounded=0;orthogonalLoop=1;jettySize=auto;html=1;exitX=1;exitY=0.5;exitDx=0;exitDy=0;entryX=0;entryY=0.5;entryDx=0;entryDy=0;" edge="1" parent="1" source="0zhq0VFXp20kZqqoGH3C-234" target="0zhq0VFXp20kZqqoGH3C-4">
          <mxGeometry relative="1" as="geometry">
            <Array as="points">
              <mxPoint x="2170" y="1151" />
              <mxPoint x="2170" y="2150" />
              <mxPoint x="-800" y="2150" />
              <mxPoint x="-800" y="440" />
            </Array>
          </mxGeometry>
        </mxCell>
        <mxCell id="0zhq0VFXp20kZqqoGH3C-234" value="Mengganti Nama Mahasiswa di Variabel" style="rounded=0;whiteSpace=wrap;html=1;" vertex="1" parent="1">
          <mxGeometry x="2001" y="1120.88" width="120" height="60" as="geometry" />
        </mxCell>
        <mxCell id="0zhq0VFXp20kZqqoGH3C-235" style="edgeStyle=orthogonalEdgeStyle;rounded=0;orthogonalLoop=1;jettySize=auto;html=1;exitX=1;exitY=0.5;exitDx=0;exitDy=0;entryX=0;entryY=0.5;entryDx=0;entryDy=0;" edge="1" parent="1" source="0zhq0VFXp20kZqqoGH3C-236" target="0zhq0VFXp20kZqqoGH3C-240">
          <mxGeometry relative="1" as="geometry" />
        </mxCell>
        <mxCell id="0zhq0VFXp20kZqqoGH3C-236" value="Masukkan Nama&amp;nbsp; &amp;nbsp;Mahasiswa Baru" style="shape=parallelogram;perimeter=parallelogramPerimeter;whiteSpace=wrap;html=1;fixedSize=1;" vertex="1" parent="1">
          <mxGeometry x="1801" y="1248.13" width="160" height="70" as="geometry" />
        </mxCell>
        <mxCell id="0zhq0VFXp20kZqqoGH3C-237" style="edgeStyle=orthogonalEdgeStyle;rounded=0;orthogonalLoop=1;jettySize=auto;html=1;exitX=1;exitY=0.5;exitDx=0;exitDy=0;entryX=0;entryY=0.5;entryDx=0;entryDy=0;" edge="1" parent="1" source="0zhq0VFXp20kZqqoGH3C-238" target="0zhq0VFXp20kZqqoGH3C-236">
          <mxGeometry relative="1" as="geometry" />
        </mxCell>
        <mxCell id="0zhq0VFXp20kZqqoGH3C-238" value="Menampilkan Nama Mahasiswa Lama" style="rounded=0;whiteSpace=wrap;html=1;" vertex="1" parent="1">
          <mxGeometry x="1641" y="1253.13" width="120" height="60" as="geometry" />
        </mxCell>
        <mxCell id="0zhq0VFXp20kZqqoGH3C-239" style="edgeStyle=orthogonalEdgeStyle;rounded=0;orthogonalLoop=1;jettySize=auto;html=1;exitX=1;exitY=0.5;exitDx=0;exitDy=0;entryX=0;entryY=0.5;entryDx=0;entryDy=0;" edge="1" parent="1" source="0zhq0VFXp20kZqqoGH3C-240" target="0zhq0VFXp20kZqqoGH3C-4">
          <mxGeometry relative="1" as="geometry">
            <Array as="points">
              <mxPoint x="2170" y="1283" />
              <mxPoint x="2170" y="2150" />
              <mxPoint x="-800" y="2150" />
              <mxPoint x="-800" y="440" />
            </Array>
          </mxGeometry>
        </mxCell>
        <mxCell id="0zhq0VFXp20kZqqoGH3C-240" value="Mengganti Nama Mahasiswa di Variabel" style="rounded=0;whiteSpace=wrap;html=1;" vertex="1" parent="1">
          <mxGeometry x="2001" y="1253.13" width="120" height="60" as="geometry" />
        </mxCell>
        <mxCell id="0zhq0VFXp20kZqqoGH3C-241" style="edgeStyle=orthogonalEdgeStyle;rounded=0;orthogonalLoop=1;jettySize=auto;html=1;exitX=1;exitY=0.5;exitDx=0;exitDy=0;entryX=0;entryY=0.5;entryDx=0;entryDy=0;" edge="1" parent="1" source="0zhq0VFXp20kZqqoGH3C-242" target="0zhq0VFXp20kZqqoGH3C-250">
          <mxGeometry relative="1" as="geometry" />
        </mxCell>
        <mxCell id="0zhq0VFXp20kZqqoGH3C-242" value="Melakukan Perulangan Data Mahasiswa" style="rounded=0;whiteSpace=wrap;html=1;" vertex="1" parent="1">
          <mxGeometry x="1670" y="630" width="170" height="60" as="geometry" />
        </mxCell>
        <mxCell id="0zhq0VFXp20kZqqoGH3C-243" style="edgeStyle=orthogonalEdgeStyle;rounded=0;orthogonalLoop=1;jettySize=auto;html=1;exitX=0.5;exitY=1;exitDx=0;exitDy=0;entryX=0.5;entryY=0;entryDx=0;entryDy=0;" edge="1" parent="1" source="0zhq0VFXp20kZqqoGH3C-244" target="0zhq0VFXp20kZqqoGH3C-258">
          <mxGeometry relative="1" as="geometry" />
        </mxCell>
        <mxCell id="0zhq0VFXp20kZqqoGH3C-244" value="Melakukan Perulangan Data Mahasiswa" style="rounded=0;whiteSpace=wrap;html=1;" vertex="1" parent="1">
          <mxGeometry x="1230.62" y="1224" width="170" height="60" as="geometry" />
        </mxCell>
        <mxCell id="0zhq0VFXp20kZqqoGH3C-245" style="edgeStyle=orthogonalEdgeStyle;rounded=0;orthogonalLoop=1;jettySize=auto;html=1;exitX=1;exitY=0.5;exitDx=0;exitDy=0;entryX=0;entryY=0.5;entryDx=0;entryDy=0;" edge="1" parent="1" source="0zhq0VFXp20kZqqoGH3C-246" target="0zhq0VFXp20kZqqoGH3C-242">
          <mxGeometry relative="1" as="geometry" />
        </mxCell>
        <mxCell id="0zhq0VFXp20kZqqoGH3C-246" value="Masukkan NIM&lt;div&gt;Mahasiswa&lt;/div&gt;" style="shape=parallelogram;perimeter=parallelogramPerimeter;whiteSpace=wrap;html=1;fixedSize=1;" vertex="1" parent="1">
          <mxGeometry x="1446.0000000000005" y="625" width="160" height="70" as="geometry" />
        </mxCell>
        <mxCell id="0zhq0VFXp20kZqqoGH3C-247" style="edgeStyle=orthogonalEdgeStyle;rounded=0;orthogonalLoop=1;jettySize=auto;html=1;exitX=0.5;exitY=1;exitDx=0;exitDy=0;entryX=0.5;entryY=0;entryDx=0;entryDy=0;" edge="1" parent="1" source="0zhq0VFXp20kZqqoGH3C-250" target="0zhq0VFXp20kZqqoGH3C-206">
          <mxGeometry relative="1" as="geometry" />
        </mxCell>
        <mxCell id="0zhq0VFXp20kZqqoGH3C-248" value="Yes" style="edgeLabel;html=1;align=center;verticalAlign=middle;resizable=0;points=[];" vertex="1" connectable="0" parent="0zhq0VFXp20kZqqoGH3C-247">
          <mxGeometry x="-0.0735" y="-1" relative="1" as="geometry">
            <mxPoint as="offset" />
          </mxGeometry>
        </mxCell>
        <mxCell id="0zhq0VFXp20kZqqoGH3C-249" style="edgeStyle=orthogonalEdgeStyle;rounded=0;orthogonalLoop=1;jettySize=auto;html=1;exitX=1;exitY=0.5;exitDx=0;exitDy=0;entryX=0;entryY=0.5;entryDx=0;entryDy=0;" edge="1" parent="1" source="0zhq0VFXp20kZqqoGH3C-250" target="0zhq0VFXp20kZqqoGH3C-4">
          <mxGeometry relative="1" as="geometry">
            <Array as="points">
              <mxPoint x="2190" y="660" />
              <mxPoint x="2190" y="2150" />
              <mxPoint x="-800" y="2150" />
              <mxPoint x="-800" y="440" />
            </Array>
          </mxGeometry>
        </mxCell>
        <mxCell id="0zhq0VFXp20kZqqoGH3C-250" value="Apakah NIM Sesuai?" style="rhombus;whiteSpace=wrap;html=1;" vertex="1" parent="1">
          <mxGeometry x="1900.0000000000005" y="600" width="130" height="120" as="geometry" />
        </mxCell>
        <mxCell id="0zhq0VFXp20kZqqoGH3C-251" style="edgeStyle=orthogonalEdgeStyle;rounded=0;orthogonalLoop=1;jettySize=auto;html=1;exitX=0.5;exitY=1;exitDx=0;exitDy=0;entryX=0.5;entryY=0;entryDx=0;entryDy=0;" edge="1" parent="1" source="0zhq0VFXp20kZqqoGH3C-252" target="0zhq0VFXp20kZqqoGH3C-254">
          <mxGeometry relative="1" as="geometry" />
        </mxCell>
        <mxCell id="0zhq0VFXp20kZqqoGH3C-252" value="Masukkan NIM&lt;div&gt;Mahasiswa&lt;/div&gt;" style="shape=parallelogram;perimeter=parallelogramPerimeter;whiteSpace=wrap;html=1;fixedSize=1;" vertex="1" parent="1">
          <mxGeometry x="1235.8700000000003" y="1009.38" width="160" height="70" as="geometry" />
        </mxCell>
        <mxCell id="0zhq0VFXp20kZqqoGH3C-253" style="edgeStyle=orthogonalEdgeStyle;rounded=0;orthogonalLoop=1;jettySize=auto;html=1;exitX=0.5;exitY=1;exitDx=0;exitDy=0;entryX=0.5;entryY=0;entryDx=0;entryDy=0;" edge="1" parent="1" source="0zhq0VFXp20kZqqoGH3C-254" target="0zhq0VFXp20kZqqoGH3C-244">
          <mxGeometry relative="1" as="geometry" />
        </mxCell>
        <mxCell id="0zhq0VFXp20kZqqoGH3C-254" value="Masukkan Nama Mata Kuliah&amp;nbsp;" style="shape=parallelogram;perimeter=parallelogramPerimeter;whiteSpace=wrap;html=1;fixedSize=1;" vertex="1" parent="1">
          <mxGeometry x="1235.6200000000003" y="1115.88" width="160" height="70" as="geometry" />
        </mxCell>
        <mxCell id="0zhq0VFXp20kZqqoGH3C-255" style="edgeStyle=orthogonalEdgeStyle;rounded=0;orthogonalLoop=1;jettySize=auto;html=1;exitX=0.5;exitY=1;exitDx=0;exitDy=0;entryX=0.5;entryY=0;entryDx=0;entryDy=0;" edge="1" parent="1" source="0zhq0VFXp20kZqqoGH3C-258" target="0zhq0VFXp20kZqqoGH3C-265">
          <mxGeometry relative="1" as="geometry" />
        </mxCell>
        <mxCell id="0zhq0VFXp20kZqqoGH3C-256" style="edgeStyle=orthogonalEdgeStyle;rounded=0;orthogonalLoop=1;jettySize=auto;html=1;exitX=0;exitY=0.5;exitDx=0;exitDy=0;entryX=0;entryY=0.5;entryDx=0;entryDy=0;" edge="1" parent="1" source="0zhq0VFXp20kZqqoGH3C-258" target="0zhq0VFXp20kZqqoGH3C-4">
          <mxGeometry relative="1" as="geometry">
            <Array as="points">
              <mxPoint x="1190" y="1380" />
              <mxPoint x="1190" y="2150" />
              <mxPoint x="-800" y="2150" />
              <mxPoint x="-800" y="440" />
            </Array>
          </mxGeometry>
        </mxCell>
        <mxCell id="0zhq0VFXp20kZqqoGH3C-257" value="No" style="edgeLabel;html=1;align=center;verticalAlign=middle;resizable=0;points=[];" vertex="1" connectable="0" parent="0zhq0VFXp20kZqqoGH3C-256">
          <mxGeometry x="-0.9896" relative="1" as="geometry">
            <mxPoint x="1" as="offset" />
          </mxGeometry>
        </mxCell>
        <mxCell id="0zhq0VFXp20kZqqoGH3C-258" value="Apakah NIM Sesuai?" style="rhombus;whiteSpace=wrap;html=1;" vertex="1" parent="1">
          <mxGeometry x="1250.6200000000003" y="1319.88" width="130" height="120" as="geometry" />
        </mxCell>
        <mxCell id="0zhq0VFXp20kZqqoGH3C-259" style="edgeStyle=orthogonalEdgeStyle;rounded=0;orthogonalLoop=1;jettySize=auto;html=1;exitX=1;exitY=0.5;exitDx=0;exitDy=0;entryX=0;entryY=0.5;entryDx=0;entryDy=0;" edge="1" parent="1" source="0zhq0VFXp20kZqqoGH3C-263" target="0zhq0VFXp20kZqqoGH3C-270">
          <mxGeometry relative="1" as="geometry">
            <Array as="points">
              <mxPoint x="1430" y="1637" />
              <mxPoint x="1430" y="1410" />
            </Array>
          </mxGeometry>
        </mxCell>
        <mxCell id="0zhq0VFXp20kZqqoGH3C-260" value="Yes" style="edgeLabel;html=1;align=center;verticalAlign=middle;resizable=0;points=[];" vertex="1" connectable="0" parent="0zhq0VFXp20kZqqoGH3C-259">
          <mxGeometry x="-0.0248" y="1" relative="1" as="geometry">
            <mxPoint as="offset" />
          </mxGeometry>
        </mxCell>
        <mxCell id="0zhq0VFXp20kZqqoGH3C-261" style="edgeStyle=orthogonalEdgeStyle;rounded=0;orthogonalLoop=1;jettySize=auto;html=1;exitX=0.5;exitY=1;exitDx=0;exitDy=0;entryX=0;entryY=0.5;entryDx=0;entryDy=0;" edge="1" parent="1" source="0zhq0VFXp20kZqqoGH3C-263" target="0zhq0VFXp20kZqqoGH3C-4">
          <mxGeometry relative="1" as="geometry">
            <Array as="points">
              <mxPoint x="1316" y="2150" />
              <mxPoint x="-800" y="2150" />
              <mxPoint x="-800" y="440" />
            </Array>
          </mxGeometry>
        </mxCell>
        <mxCell id="0zhq0VFXp20kZqqoGH3C-262" value="No" style="edgeLabel;html=1;align=center;verticalAlign=middle;resizable=0;points=[];" vertex="1" connectable="0" parent="0zhq0VFXp20kZqqoGH3C-261">
          <mxGeometry x="-0.9901" y="1" relative="1" as="geometry">
            <mxPoint as="offset" />
          </mxGeometry>
        </mxCell>
        <mxCell id="0zhq0VFXp20kZqqoGH3C-263" value="Apakah Nama Mata Kuliah Sesuai?" style="rhombus;whiteSpace=wrap;html=1;" vertex="1" parent="1">
          <mxGeometry x="1250.87" y="1577" width="130" height="120" as="geometry" />
        </mxCell>
        <mxCell id="0zhq0VFXp20kZqqoGH3C-264" style="edgeStyle=orthogonalEdgeStyle;rounded=0;orthogonalLoop=1;jettySize=auto;html=1;exitX=0.5;exitY=1;exitDx=0;exitDy=0;entryX=0.5;entryY=0;entryDx=0;entryDy=0;" edge="1" parent="1" source="0zhq0VFXp20kZqqoGH3C-265" target="0zhq0VFXp20kZqqoGH3C-263">
          <mxGeometry relative="1" as="geometry" />
        </mxCell>
        <mxCell id="0zhq0VFXp20kZqqoGH3C-265" value="Melakukan Perulangan Data Mata Kuliah" style="rounded=0;whiteSpace=wrap;html=1;" vertex="1" parent="1">
          <mxGeometry x="1230.62" y="1480.5" width="170" height="60" as="geometry" />
        </mxCell>
        <mxCell id="0zhq0VFXp20kZqqoGH3C-266" style="edgeStyle=orthogonalEdgeStyle;rounded=0;orthogonalLoop=1;jettySize=auto;html=1;exitX=1;exitY=0.5;exitDx=0;exitDy=0;entryX=0;entryY=0.5;entryDx=0;entryDy=0;" edge="1" parent="1" source="0zhq0VFXp20kZqqoGH3C-270" target="0zhq0VFXp20kZqqoGH3C-274">
          <mxGeometry relative="1" as="geometry" />
        </mxCell>
        <mxCell id="0zhq0VFXp20kZqqoGH3C-267" value="Yes" style="edgeLabel;html=1;align=center;verticalAlign=middle;resizable=0;points=[];" vertex="1" connectable="0" parent="0zhq0VFXp20kZqqoGH3C-266">
          <mxGeometry x="-0.12" relative="1" as="geometry">
            <mxPoint as="offset" />
          </mxGeometry>
        </mxCell>
        <mxCell id="0zhq0VFXp20kZqqoGH3C-268" style="edgeStyle=orthogonalEdgeStyle;rounded=0;orthogonalLoop=1;jettySize=auto;html=1;exitX=0.5;exitY=1;exitDx=0;exitDy=0;entryX=0.5;entryY=0;entryDx=0;entryDy=0;" edge="1" parent="1" source="0zhq0VFXp20kZqqoGH3C-270" target="0zhq0VFXp20kZqqoGH3C-281">
          <mxGeometry relative="1" as="geometry" />
        </mxCell>
        <mxCell id="0zhq0VFXp20kZqqoGH3C-269" value="No" style="edgeLabel;html=1;align=center;verticalAlign=middle;resizable=0;points=[];" vertex="1" connectable="0" parent="0zhq0VFXp20kZqqoGH3C-268">
          <mxGeometry x="-0.3215" relative="1" as="geometry">
            <mxPoint as="offset" />
          </mxGeometry>
        </mxCell>
        <mxCell id="0zhq0VFXp20kZqqoGH3C-270" value="NamaMataKuliah?" style="rhombus;whiteSpace=wrap;html=1;" vertex="1" parent="1">
          <mxGeometry x="1471" y="1350" width="130" height="120" as="geometry" />
        </mxCell>
        <mxCell id="0zhq0VFXp20kZqqoGH3C-271" style="edgeStyle=orthogonalEdgeStyle;rounded=0;orthogonalLoop=1;jettySize=auto;html=1;exitX=1;exitY=0.5;exitDx=0;exitDy=0;entryX=0;entryY=0.5;entryDx=0;entryDy=0;" edge="1" parent="1" source="0zhq0VFXp20kZqqoGH3C-272" target="0zhq0VFXp20kZqqoGH3C-276">
          <mxGeometry relative="1" as="geometry" />
        </mxCell>
        <mxCell id="0zhq0VFXp20kZqqoGH3C-272" value="Masukkan Nama Mata Kuliah&amp;nbsp;Baru" style="shape=parallelogram;perimeter=parallelogramPerimeter;whiteSpace=wrap;html=1;fixedSize=1;" vertex="1" parent="1">
          <mxGeometry x="1811" y="1375" width="160" height="70" as="geometry" />
        </mxCell>
        <mxCell id="0zhq0VFXp20kZqqoGH3C-273" style="edgeStyle=orthogonalEdgeStyle;rounded=0;orthogonalLoop=1;jettySize=auto;html=1;exitX=1;exitY=0.5;exitDx=0;exitDy=0;entryX=0;entryY=0.5;entryDx=0;entryDy=0;" edge="1" parent="1" source="0zhq0VFXp20kZqqoGH3C-274" target="0zhq0VFXp20kZqqoGH3C-272">
          <mxGeometry relative="1" as="geometry" />
        </mxCell>
        <mxCell id="0zhq0VFXp20kZqqoGH3C-274" value="Menampilkan Nama Mata Kuliah Lama" style="rounded=0;whiteSpace=wrap;html=1;" vertex="1" parent="1">
          <mxGeometry x="1651" y="1380" width="120" height="60" as="geometry" />
        </mxCell>
        <mxCell id="0zhq0VFXp20kZqqoGH3C-275" style="edgeStyle=orthogonalEdgeStyle;rounded=0;orthogonalLoop=1;jettySize=auto;html=1;exitX=1;exitY=0.5;exitDx=0;exitDy=0;entryX=0;entryY=0.5;entryDx=0;entryDy=0;" edge="1" parent="1" source="0zhq0VFXp20kZqqoGH3C-276" target="0zhq0VFXp20kZqqoGH3C-4">
          <mxGeometry relative="1" as="geometry">
            <Array as="points">
              <mxPoint x="2210" y="1410" />
              <mxPoint x="2210" y="2150" />
              <mxPoint x="-800" y="2150" />
              <mxPoint x="-800" y="440" />
            </Array>
          </mxGeometry>
        </mxCell>
        <mxCell id="0zhq0VFXp20kZqqoGH3C-276" value="Mengganti Nama Mata Kuliah&amp;nbsp;di Variabel" style="rounded=0;whiteSpace=wrap;html=1;" vertex="1" parent="1">
          <mxGeometry x="2011" y="1380" width="120" height="60" as="geometry" />
        </mxCell>
        <mxCell id="0zhq0VFXp20kZqqoGH3C-277" style="edgeStyle=orthogonalEdgeStyle;rounded=0;orthogonalLoop=1;jettySize=auto;html=1;exitX=1;exitY=0.5;exitDx=0;exitDy=0;entryX=0;entryY=0.5;entryDx=0;entryDy=0;" edge="1" parent="1" source="0zhq0VFXp20kZqqoGH3C-281" target="0zhq0VFXp20kZqqoGH3C-285">
          <mxGeometry relative="1" as="geometry" />
        </mxCell>
        <mxCell id="0zhq0VFXp20kZqqoGH3C-278" value="Yes" style="edgeLabel;html=1;align=center;verticalAlign=middle;resizable=0;points=[];" vertex="1" connectable="0" parent="0zhq0VFXp20kZqqoGH3C-277">
          <mxGeometry x="-0.4109" y="1" relative="1" as="geometry">
            <mxPoint as="offset" />
          </mxGeometry>
        </mxCell>
        <mxCell id="0zhq0VFXp20kZqqoGH3C-279" style="edgeStyle=orthogonalEdgeStyle;rounded=0;orthogonalLoop=1;jettySize=auto;html=1;exitX=0.5;exitY=1;exitDx=0;exitDy=0;entryX=0.5;entryY=0;entryDx=0;entryDy=0;" edge="1" parent="1" source="0zhq0VFXp20kZqqoGH3C-281" target="0zhq0VFXp20kZqqoGH3C-292">
          <mxGeometry relative="1" as="geometry" />
        </mxCell>
        <mxCell id="0zhq0VFXp20kZqqoGH3C-280" value="No" style="edgeLabel;html=1;align=center;verticalAlign=middle;resizable=0;points=[];" vertex="1" connectable="0" parent="0zhq0VFXp20kZqqoGH3C-279">
          <mxGeometry x="-0.2323" y="-1" relative="1" as="geometry">
            <mxPoint as="offset" />
          </mxGeometry>
        </mxCell>
        <mxCell id="0zhq0VFXp20kZqqoGH3C-281" value="SKS?" style="rhombus;whiteSpace=wrap;html=1;" vertex="1" parent="1">
          <mxGeometry x="1471" y="1511" width="130" height="120" as="geometry" />
        </mxCell>
        <mxCell id="0zhq0VFXp20kZqqoGH3C-282" style="edgeStyle=orthogonalEdgeStyle;rounded=0;orthogonalLoop=1;jettySize=auto;html=1;exitX=1;exitY=0.5;exitDx=0;exitDy=0;entryX=0;entryY=0.5;entryDx=0;entryDy=0;" edge="1" parent="1" source="0zhq0VFXp20kZqqoGH3C-283" target="0zhq0VFXp20kZqqoGH3C-287">
          <mxGeometry relative="1" as="geometry" />
        </mxCell>
        <mxCell id="0zhq0VFXp20kZqqoGH3C-283" value="Masukkan SKS Baru" style="shape=parallelogram;perimeter=parallelogramPerimeter;whiteSpace=wrap;html=1;fixedSize=1;" vertex="1" parent="1">
          <mxGeometry x="1811" y="1536" width="160" height="70" as="geometry" />
        </mxCell>
        <mxCell id="0zhq0VFXp20kZqqoGH3C-284" style="edgeStyle=orthogonalEdgeStyle;rounded=0;orthogonalLoop=1;jettySize=auto;html=1;exitX=1;exitY=0.5;exitDx=0;exitDy=0;entryX=0;entryY=0.5;entryDx=0;entryDy=0;" edge="1" parent="1" source="0zhq0VFXp20kZqqoGH3C-285" target="0zhq0VFXp20kZqqoGH3C-283">
          <mxGeometry relative="1" as="geometry" />
        </mxCell>
        <mxCell id="0zhq0VFXp20kZqqoGH3C-285" value="Menampilkan SKS Lama" style="rounded=0;whiteSpace=wrap;html=1;" vertex="1" parent="1">
          <mxGeometry x="1651" y="1541" width="120" height="60" as="geometry" />
        </mxCell>
        <mxCell id="0zhq0VFXp20kZqqoGH3C-286" style="edgeStyle=orthogonalEdgeStyle;rounded=0;orthogonalLoop=1;jettySize=auto;html=1;exitX=1;exitY=0.5;exitDx=0;exitDy=0;entryX=0;entryY=0.5;entryDx=0;entryDy=0;" edge="1" parent="1" source="0zhq0VFXp20kZqqoGH3C-287" target="0zhq0VFXp20kZqqoGH3C-4">
          <mxGeometry relative="1" as="geometry">
            <Array as="points">
              <mxPoint x="2210" y="1571" />
              <mxPoint x="2210" y="2150" />
              <mxPoint x="-800" y="2150" />
              <mxPoint x="-800" y="440" />
            </Array>
          </mxGeometry>
        </mxCell>
        <mxCell id="0zhq0VFXp20kZqqoGH3C-287" value="Mengganti SKS di Variabel" style="rounded=0;whiteSpace=wrap;html=1;" vertex="1" parent="1">
          <mxGeometry x="2011" y="1541" width="120" height="60" as="geometry" />
        </mxCell>
        <mxCell id="0zhq0VFXp20kZqqoGH3C-288" style="edgeStyle=orthogonalEdgeStyle;rounded=0;orthogonalLoop=1;jettySize=auto;html=1;exitX=1;exitY=0.5;exitDx=0;exitDy=0;entryX=0;entryY=0.5;entryDx=0;entryDy=0;" edge="1" parent="1" source="0zhq0VFXp20kZqqoGH3C-292" target="0zhq0VFXp20kZqqoGH3C-296">
          <mxGeometry relative="1" as="geometry" />
        </mxCell>
        <mxCell id="0zhq0VFXp20kZqqoGH3C-289" value="Yes" style="edgeLabel;html=1;align=center;verticalAlign=middle;resizable=0;points=[];" vertex="1" connectable="0" parent="0zhq0VFXp20kZqqoGH3C-288">
          <mxGeometry x="-0.1564" y="-1" relative="1" as="geometry">
            <mxPoint as="offset" />
          </mxGeometry>
        </mxCell>
        <mxCell id="0zhq0VFXp20kZqqoGH3C-290" style="edgeStyle=orthogonalEdgeStyle;rounded=0;orthogonalLoop=1;jettySize=auto;html=1;exitX=0.5;exitY=1;exitDx=0;exitDy=0;entryX=0.5;entryY=0;entryDx=0;entryDy=0;" edge="1" parent="1" source="0zhq0VFXp20kZqqoGH3C-292" target="0zhq0VFXp20kZqqoGH3C-303">
          <mxGeometry relative="1" as="geometry" />
        </mxCell>
        <mxCell id="0zhq0VFXp20kZqqoGH3C-291" value="No" style="edgeLabel;html=1;align=center;verticalAlign=middle;resizable=0;points=[];" vertex="1" connectable="0" parent="0zhq0VFXp20kZqqoGH3C-290">
          <mxGeometry x="-0.1712" relative="1" as="geometry">
            <mxPoint as="offset" />
          </mxGeometry>
        </mxCell>
        <mxCell id="0zhq0VFXp20kZqqoGH3C-292" value="UTS?" style="rhombus;whiteSpace=wrap;html=1;" vertex="1" parent="1">
          <mxGeometry x="1471" y="1667" width="130" height="120" as="geometry" />
        </mxCell>
        <mxCell id="0zhq0VFXp20kZqqoGH3C-293" style="edgeStyle=orthogonalEdgeStyle;rounded=0;orthogonalLoop=1;jettySize=auto;html=1;exitX=1;exitY=0.5;exitDx=0;exitDy=0;entryX=0;entryY=0.5;entryDx=0;entryDy=0;" edge="1" parent="1" source="0zhq0VFXp20kZqqoGH3C-294" target="0zhq0VFXp20kZqqoGH3C-298">
          <mxGeometry relative="1" as="geometry" />
        </mxCell>
        <mxCell id="0zhq0VFXp20kZqqoGH3C-294" value="Masukkan UTS Baru" style="shape=parallelogram;perimeter=parallelogramPerimeter;whiteSpace=wrap;html=1;fixedSize=1;" vertex="1" parent="1">
          <mxGeometry x="1811" y="1692" width="160" height="70" as="geometry" />
        </mxCell>
        <mxCell id="0zhq0VFXp20kZqqoGH3C-295" style="edgeStyle=orthogonalEdgeStyle;rounded=0;orthogonalLoop=1;jettySize=auto;html=1;exitX=1;exitY=0.5;exitDx=0;exitDy=0;entryX=0;entryY=0.5;entryDx=0;entryDy=0;" edge="1" parent="1" source="0zhq0VFXp20kZqqoGH3C-296" target="0zhq0VFXp20kZqqoGH3C-294">
          <mxGeometry relative="1" as="geometry" />
        </mxCell>
        <mxCell id="0zhq0VFXp20kZqqoGH3C-296" value="Menampilkan UTS Lama" style="rounded=0;whiteSpace=wrap;html=1;" vertex="1" parent="1">
          <mxGeometry x="1651" y="1697" width="120" height="60" as="geometry" />
        </mxCell>
        <mxCell id="0zhq0VFXp20kZqqoGH3C-297" style="edgeStyle=orthogonalEdgeStyle;rounded=0;orthogonalLoop=1;jettySize=auto;html=1;exitX=1;exitY=0.5;exitDx=0;exitDy=0;entryX=0;entryY=0.5;entryDx=0;entryDy=0;" edge="1" parent="1" source="0zhq0VFXp20kZqqoGH3C-298" target="0zhq0VFXp20kZqqoGH3C-4">
          <mxGeometry relative="1" as="geometry">
            <Array as="points">
              <mxPoint x="2210" y="1727" />
              <mxPoint x="2210" y="2150" />
              <mxPoint x="-800" y="2150" />
              <mxPoint x="-800" y="440" />
            </Array>
          </mxGeometry>
        </mxCell>
        <mxCell id="0zhq0VFXp20kZqqoGH3C-298" value="Mengganti UTS di Variabel" style="rounded=0;whiteSpace=wrap;html=1;" vertex="1" parent="1">
          <mxGeometry x="2011" y="1697" width="120" height="60" as="geometry" />
        </mxCell>
        <mxCell id="0zhq0VFXp20kZqqoGH3C-299" style="edgeStyle=orthogonalEdgeStyle;rounded=0;orthogonalLoop=1;jettySize=auto;html=1;exitX=1;exitY=0.5;exitDx=0;exitDy=0;entryX=0;entryY=0.5;entryDx=0;entryDy=0;" edge="1" parent="1" source="0zhq0VFXp20kZqqoGH3C-303" target="0zhq0VFXp20kZqqoGH3C-307">
          <mxGeometry relative="1" as="geometry" />
        </mxCell>
        <mxCell id="0zhq0VFXp20kZqqoGH3C-300" value="Yes" style="edgeLabel;html=1;align=center;verticalAlign=middle;resizable=0;points=[];" vertex="1" connectable="0" parent="0zhq0VFXp20kZqqoGH3C-299">
          <mxGeometry x="-0.3018" y="-2" relative="1" as="geometry">
            <mxPoint as="offset" />
          </mxGeometry>
        </mxCell>
        <mxCell id="0zhq0VFXp20kZqqoGH3C-301" style="edgeStyle=orthogonalEdgeStyle;rounded=0;orthogonalLoop=1;jettySize=auto;html=1;exitX=0.5;exitY=1;exitDx=0;exitDy=0;entryX=0;entryY=0.5;entryDx=0;entryDy=0;" edge="1" parent="1" source="0zhq0VFXp20kZqqoGH3C-303" target="0zhq0VFXp20kZqqoGH3C-313">
          <mxGeometry relative="1" as="geometry" />
        </mxCell>
        <mxCell id="0zhq0VFXp20kZqqoGH3C-302" value="No" style="edgeLabel;html=1;align=center;verticalAlign=middle;resizable=0;points=[];" vertex="1" connectable="0" parent="0zhq0VFXp20kZqqoGH3C-301">
          <mxGeometry x="-0.5827" relative="1" as="geometry">
            <mxPoint as="offset" />
          </mxGeometry>
        </mxCell>
        <mxCell id="0zhq0VFXp20kZqqoGH3C-303" value="UAS?" style="rhombus;whiteSpace=wrap;html=1;" vertex="1" parent="1">
          <mxGeometry x="1471" y="1830" width="130" height="120" as="geometry" />
        </mxCell>
        <mxCell id="0zhq0VFXp20kZqqoGH3C-304" style="edgeStyle=orthogonalEdgeStyle;rounded=0;orthogonalLoop=1;jettySize=auto;html=1;exitX=1;exitY=0.5;exitDx=0;exitDy=0;entryX=0;entryY=0.5;entryDx=0;entryDy=0;" edge="1" parent="1" source="0zhq0VFXp20kZqqoGH3C-305" target="0zhq0VFXp20kZqqoGH3C-309">
          <mxGeometry relative="1" as="geometry" />
        </mxCell>
        <mxCell id="0zhq0VFXp20kZqqoGH3C-305" value="Masukkan UAS Baru" style="shape=parallelogram;perimeter=parallelogramPerimeter;whiteSpace=wrap;html=1;fixedSize=1;" vertex="1" parent="1">
          <mxGeometry x="1811" y="1855" width="160" height="70" as="geometry" />
        </mxCell>
        <mxCell id="0zhq0VFXp20kZqqoGH3C-306" style="edgeStyle=orthogonalEdgeStyle;rounded=0;orthogonalLoop=1;jettySize=auto;html=1;exitX=1;exitY=0.5;exitDx=0;exitDy=0;entryX=0;entryY=0.5;entryDx=0;entryDy=0;" edge="1" parent="1" source="0zhq0VFXp20kZqqoGH3C-307" target="0zhq0VFXp20kZqqoGH3C-305">
          <mxGeometry relative="1" as="geometry" />
        </mxCell>
        <mxCell id="0zhq0VFXp20kZqqoGH3C-307" value="Menampilkan UAS&amp;nbsp; Lama" style="rounded=0;whiteSpace=wrap;html=1;" vertex="1" parent="1">
          <mxGeometry x="1651" y="1860" width="120" height="60" as="geometry" />
        </mxCell>
        <mxCell id="0zhq0VFXp20kZqqoGH3C-308" style="edgeStyle=orthogonalEdgeStyle;rounded=0;orthogonalLoop=1;jettySize=auto;html=1;exitX=1;exitY=0.5;exitDx=0;exitDy=0;entryX=0;entryY=0.5;entryDx=0;entryDy=0;" edge="1" parent="1" source="0zhq0VFXp20kZqqoGH3C-309" target="0zhq0VFXp20kZqqoGH3C-4">
          <mxGeometry relative="1" as="geometry">
            <Array as="points">
              <mxPoint x="2210" y="1890" />
              <mxPoint x="2210" y="2150" />
              <mxPoint x="-800" y="2150" />
              <mxPoint x="-800" y="440" />
            </Array>
          </mxGeometry>
        </mxCell>
        <mxCell id="0zhq0VFXp20kZqqoGH3C-309" value="Mengganti UAS di Variabel" style="rounded=0;whiteSpace=wrap;html=1;" vertex="1" parent="1">
          <mxGeometry x="2011" y="1860" width="120" height="60" as="geometry" />
        </mxCell>
        <mxCell id="0zhq0VFXp20kZqqoGH3C-310" style="edgeStyle=orthogonalEdgeStyle;rounded=0;orthogonalLoop=1;jettySize=auto;html=1;exitX=1;exitY=0.5;exitDx=0;exitDy=0;entryX=0;entryY=0.5;entryDx=0;entryDy=0;" edge="1" parent="1" source="0zhq0VFXp20kZqqoGH3C-311" target="0zhq0VFXp20kZqqoGH3C-315">
          <mxGeometry relative="1" as="geometry" />
        </mxCell>
        <mxCell id="0zhq0VFXp20kZqqoGH3C-311" value="Masukkan Quiz Baru" style="shape=parallelogram;perimeter=parallelogramPerimeter;whiteSpace=wrap;html=1;fixedSize=1;" vertex="1" parent="1">
          <mxGeometry x="1811" y="1993" width="160" height="70" as="geometry" />
        </mxCell>
        <mxCell id="0zhq0VFXp20kZqqoGH3C-312" style="edgeStyle=orthogonalEdgeStyle;rounded=0;orthogonalLoop=1;jettySize=auto;html=1;exitX=1;exitY=0.5;exitDx=0;exitDy=0;entryX=0;entryY=0.5;entryDx=0;entryDy=0;" edge="1" parent="1" source="0zhq0VFXp20kZqqoGH3C-313" target="0zhq0VFXp20kZqqoGH3C-311">
          <mxGeometry relative="1" as="geometry" />
        </mxCell>
        <mxCell id="0zhq0VFXp20kZqqoGH3C-313" value="Menampilkan Quiz Lama" style="rounded=0;whiteSpace=wrap;html=1;" vertex="1" parent="1">
          <mxGeometry x="1651" y="1998" width="120" height="60" as="geometry" />
        </mxCell>
        <mxCell id="0zhq0VFXp20kZqqoGH3C-314" style="edgeStyle=orthogonalEdgeStyle;rounded=0;orthogonalLoop=1;jettySize=auto;html=1;exitX=1;exitY=0.5;exitDx=0;exitDy=0;entryX=0;entryY=0.5;entryDx=0;entryDy=0;" edge="1" parent="1" source="0zhq0VFXp20kZqqoGH3C-315" target="0zhq0VFXp20kZqqoGH3C-4">
          <mxGeometry relative="1" as="geometry">
            <mxPoint x="-138" y="410" as="targetPoint" />
            <Array as="points">
              <mxPoint x="2210" y="2028" />
              <mxPoint x="2210" y="2150" />
              <mxPoint x="-800" y="2150" />
              <mxPoint x="-800" y="440" />
            </Array>
          </mxGeometry>
        </mxCell>
        <mxCell id="0zhq0VFXp20kZqqoGH3C-315" value="Mengganti Quiz&amp;nbsp;di Variabel" style="rounded=0;whiteSpace=wrap;html=1;" vertex="1" parent="1">
          <mxGeometry x="2011" y="1998" width="120" height="60" as="geometry" />
        </mxCell>
      </root>
    </mxGraphModel>
  </diagram>
</mxfile>
